<?xml version="1.0" encoding="utf-8"?>
<!-- Svg Vector Icons : http://www.onlinewebfonts.com/icon -->
<!DOCTYPE svg PUBLIC "-//W3C//DTD SVG 1.1//EN" "http://www.w3.org/Graphics/SVG/1.1/DTD/svg11.dtd">
<svg version="1.1" xmlns="http://www.w3.org/2000/svg" xmlns:xlink="http://www.w3.org/1999/xlink" x="0px" y="0px" viewBox="0 0 1000 1000" enable-background="new 0 0 1000 1000" xml:space="preserve">
<metadata> Svg Vector Icons : http://www.onlinewebfonts.com/icon </metadata>
<g><g transform="translate(0.000000,511.000000) scale(0.100000,-0.100000)"><path d="M4627,3774.7c-510.8-51.7-807.3-105.2-1157.3-212.3c-573.9-172.2-1117.2-455.3-1549.5-803.4c-202.8-162.6-524.2-503.1-663.8-700.1c-306.1-434.2-495.4-952.6-533.7-1461.5l-13.4-177.9H5000h4290.7l-13.4,177.9c-38.3,508.9-227.6,1029.2-533.7,1459.6c-143.5,200.9-461,539.4-661.9,700.1c-637,514.6-1463.4,857-2374,983.3C5512.7,3767,4781.9,3790,4627,3774.7z M3896.2,2802.9c116.7-57.4,166.4-116.7,179.8-220c13.4-97.6-53.6-187.5-187.5-256.3c-254.4-130.1-593-61.2-696.3,141.6C3046.9,2747.4,3534.7,2980.8,3896.2,2802.9z M6344.8,2802.9c116.7-57.4,166.4-116.7,179.8-220c11.5-93.7-51.7-181.7-185.6-258.2c-93.7-53.6-122.4-59.3-267.8-59.3c-145.4,0-174.1,5.7-267.8,57.4c-283.1,155-242.9,413.2,82.3,518.4C6012,2883.2,6218.5,2866,6344.8,2802.9z M2518.9,1578.6c116.7-57.4,166.4-116.7,179.8-220c13.4-99.5-53.6-187.5-195.1-260.2c-97.6-49.7-132-57.4-265.9-57.4c-248.7,0-418.9,101.4-445.7,265.9C1749.9,1569,2197.5,1737.4,2518.9,1578.6z M5273.5,1578.6c116.7-57.4,166.4-116.7,179.8-220c11.5-93.7-51.7-181.7-185.6-258.2c-93.7-53.6-122.4-59.3-267.8-59.3c-139.6,0-177.9,7.7-271.6,53.6c-164.5,80.4-223.8,208.5-158.8,346.3C4659.5,1628.3,5024.9,1701,5273.5,1578.6z M8028.2,1578.6c116.7-57.4,166.4-116.7,179.8-220c11.5-93.7-51.7-181.7-185.6-258.2c-93.8-53.6-122.4-59.3-267.8-59.3c-139.6,0-177.9,7.7-271.6,53.6c-164.5,80.4-223.8,208.5-158.8,346.3C7414.1,1628.3,7779.5,1701,8028.2,1578.6z"/><path d="M380.2-238.7C265.5-292.3,194.7-365,143-479.7c-57.4-126.3-57.4-524.1,0-650.4c51.6-114.8,122.4-187.5,237.2-241l95.6-45.9H5000h4524.1l95.6,45.9c114.8,53.6,185.6,126.3,237.2,241c57.4,126.3,57.4,524.2,0,650.4c-51.7,114.8-122.4,187.5-237.2,241c-91.8,44-112.9,45.9-526.1,45.9h-430.4l-453.4-453.4l-455.3-455.3l-455.3,455.3L6846-192.8h-3185H475.9L380.2-238.7z"/><path d="M715-2606.9c0-570.1,1.9-581.5,45.9-675.3c53.6-114.8,126.3-185.6,241-237.2c86.1-38.3,103.3-40.2,3998-40.2h3912l95.7,45.9c114.8,53.6,185.6,126.2,237.2,241c36.3,80.4,40.2,124.3,40.2,665.7v577.7H5000H715V-2606.9z"/></g></g>
</svg>