<?xml version="1.0" encoding="iso-8859-1"?>
<!-- Generator: Adobe Illustrator 18.0.0, SVG Export Plug-In . SVG Version: 6.00 Build 0)  -->
<!DOCTYPE svg PUBLIC "-//W3C//DTD SVG 1.1//EN" "http://www.w3.org/Graphics/SVG/1.1/DTD/svg11.dtd">
<svg version="1.1" id="Capa_1" xmlns="http://www.w3.org/2000/svg" xmlns:xlink="http://www.w3.org/1999/xlink" x="0px" y="0px"
	 viewBox="0 0 297 297" style="enable-background:new 0 0 297 297;" xml:space="preserve">
<path d="M268.015,28.955C249.352,10.283,224.536,0,198.143,0c-26.395,0-51.208,10.283-69.87,28.955
	c-14.292,14.299-18.887,31.602-20.105,50.408c-2.912,44.926,33.37,80.561,78.655,80.578c0.013,0,0.027,0,0.04,0
	c17.743,0,34.445-6.933,47.036-19.525c12.757-12.759,19.775-29.771,19.762-47.9c-0.01-28.849-23.285-52.332-51.885-52.349
	c-0.006,0-0.014,0-0.02,0c-10.564,0-20.51,4.129-28.01,11.629c-7.601,7.604-11.784,17.743-11.776,28.552
	c0.005,16.83,13.573,30.528,30.245,30.542c0.004,0,0.008,0,0.011,0c5.996,0,11.638-2.356,15.883-6.636
	c4.267-4.301,6.615-10.022,6.611-16.115c-0.005-9.14-7.357-16.575-16.391-16.575c-4.555,0-8.246-3.692-8.246-8.246
	s3.691-8.246,8.246-8.246c18.121,0,32.872,14.83,32.883,33.059c0.006,10.478-4.042,20.329-11.395,27.739
	c-7.366,7.425-17.165,11.513-27.593,11.513c-0.006,0-0.013,0-0.02,0c-25.758-0.02-46.719-21.114-46.727-47.024
	c-0.011-15.215,5.887-29.5,16.606-40.222c10.612-10.616,24.703-16.461,39.673-16.461c0.011,0,0.019,0,0.028,0
	c37.686,0.022,68.354,30.9,68.368,68.832c0.017,22.537-8.717,43.693-24.591,59.569c-15.706,15.708-36.552,24.357-58.697,24.357
	c-0.018,0-0.032,0-0.05,0c-31.866-0.013-60.374-14.8-79.132-37.91c2.05,4.693,4.463,9.266,7.275,13.656
	c-1.376-0.654-2.89-1.021-4.432-1.021c-2.711,0-5.37,1.103-7.288,3.021c-1.916,1.917-3.02,4.576-3.02,7.287
	c0,2.711,1.104,5.37,3.02,7.287c1.918,1.918,4.577,3.02,7.288,3.02c0.056,0,0.111-0.008,0.168-0.008L3.111,279.405
	c-4.024,4.026-4.023,10.553,0.004,14.577C5.127,295.994,7.764,297,10.401,297c2.639,0,5.278-1.008,7.291-3.022l107.572-107.627
	c-0.001,0.055-0.008,0.108-0.008,0.162c0,2.711,1.104,5.36,3.019,7.288c1.918,1.917,4.577,3.02,7.288,3.02
	c2.711,0,5.37-1.104,7.287-3.02c1.917-1.928,3.02-4.577,3.02-7.288c0-1.515-0.352-3.002-0.986-4.359
	c15.752,10.125,34.087,15.555,53.258,15.555c26.393,0,51.209-10.284,69.872-28.956C306.537,130.21,306.537,67.497,268.015,28.955z"
	/>
<g>
</g>
<g>
</g>
<g>
</g>
<g>
</g>
<g>
</g>
<g>
</g>
<g>
</g>
<g>
</g>
<g>
</g>
<g>
</g>
<g>
</g>
<g>
</g>
<g>
</g>
<g>
</g>
<g>
</g>
</svg>
