<?xml version="1.0" encoding="UTF-8" standalone="no"?>
<!-- Created with Inkscape (http://www.inkscape.org/) -->

<svg
   xmlns:dc="http://purl.org/dc/elements/1.1/"
   xmlns:cc="http://creativecommons.org/ns#"
   xmlns:rdf="http://www.w3.org/1999/02/22-rdf-syntax-ns#"
   xmlns:svg="http://www.w3.org/2000/svg"
   xmlns="http://www.w3.org/2000/svg"
   xmlns:sodipodi="http://sodipodi.sourceforge.net/DTD/sodipodi-0.dtd"
   xmlns:inkscape="http://www.inkscape.org/namespaces/inkscape"
   version="1.1"
   id="svg815"
   width="500"
   height="500"
   viewBox="0 0 500 500"
   sodipodi:docname="mascotte3.svg"
   inkscape:version="0.92.3 (2405546, 2018-03-11)">
  <metadata
     id="metadata821">
    <rdf:RDF>
      <cc:Work
         rdf:about="">
        <dc:format>image/svg+xml</dc:format>
        <dc:type
           rdf:resource="http://purl.org/dc/dcmitype/StillImage" />
        <dc:title></dc:title>
      </cc:Work>
    </rdf:RDF>
  </metadata>
  <defs
     id="defs819" />
  <sodipodi:namedview
     pagecolor="#ffffff"
     bordercolor="#666666"
     borderopacity="1"
     objecttolerance="10"
     gridtolerance="10"
     guidetolerance="10"
     inkscape:pageopacity="0"
     inkscape:pageshadow="2"
     inkscape:window-width="1366"
     inkscape:window-height="715"
     id="namedview817"
     showgrid="false"
     inkscape:zoom="0.70473253"
     inkscape:cx="183.49318"
     inkscape:cy="190.68359"
     inkscape:window-x="-8"
     inkscape:window-y="-8"
     inkscape:window-maximized="1"
     inkscape:current-layer="g825" />
  <g
     id="g825"
     transform="translate(4.9664227,116.16644)">
    <path
       style="fill:#f3cba8;stroke-width:0.79999995"
       d="m 51.675911,312.75307 c -8.72845,-1.76757 -18.654526,-7.16671 -25.110255,-13.65833 -5.029387,-5.05736 -8.553275,-10.59501 -11.409616,-17.92978 -2.127665,-5.46361 -2.547087,-7.74606 -2.866641,-15.6 -0.227627,-5.59456 -0.03705,-10.06217 0.486295,-11.4 l 0.860617,-2.2 H 243.67591 473.7155 l 0.7802,2.05208 c 1.15185,3.02959 0.9225,14.34506 -0.4191,20.67787 -2.06099,9.72857 -8.32764,20.34763 -15.85028,26.85883 -3.80796,3.29597 -11.52268,7.77492 -16.80377,9.7558 l -4.94665,1.85542 -190.79999,0.11806 c -104.94,0.0649 -192.239999,-0.17354 -193.999999,-0.52995 z M 37.265466,238.52595 c -9.913122,-3.42788 -17.130349,-9.78066 -21.764867,-19.15797 l -3.024687,-6.12003 v -10.8415 c 0,-10.19377 0.133419,-11.12641 2.233136,-15.61054 2.617351,-5.58958 8.207964,-13.10172 10.5418,-14.16509 1.27252,-0.5798 3.580196,0.16534 10.429572,3.3677 24.846755,11.61681 44.81304,25.07659 60.153626,40.55107 3.606976,3.63845 6.777314,6.61537 7.045184,6.61537 0.26787,0 4.69671,-1.83538 9.84186,-4.07864 55.47974,-24.18878 144.33739,-39.79316 259.35481,-45.54557 9.02,-0.45112 34.22,-1.04171 56,-1.31242 l 39.6,-0.4922 3.85202,4.13575 c 10.40918,11.17592 13.04572,29.80304 6.18964,43.72972 -4.59823,9.34032 -12.10656,15.85741 -21.71443,18.84771 -4.72699,1.47121 -10.87881,1.51488 -209.7985,1.48953 -192.310425,-0.0245 -205.175658,-0.1115 -208.939164,-1.41289 z M 97.32703,198.6714 C 84.805143,188.32585 65.227121,175.36826 52.39967,168.9365 c -9.1293,-4.57748 -20.507091,-8.64826 -28.285099,-10.11992 -3.718738,-0.70362 -7.043225,-1.72307 -7.38775,-2.26546 -0.738893,-1.16324 -0.868128,-11.88923 -0.165318,-13.72072 0.437314,-1.13963 6.985669,-1.26544 65.866665,-1.26544 35.959592,0 65.604912,-0.22384 65.878512,-0.49743 0.27359,-0.27359 -0.40161,-2.27161 -1.50044,-4.44005 -1.09884,-2.16844 -2.25418,-5.99459 -2.56743,-8.50257 l -0.56955,-4.55994 -63.152479,-0.20488 c -43.73646,-0.1419 -63.314932,-0.46775 -63.680875,-1.05985 -0.290619,-0.47023 0.1185,-3.97804 0.909154,-7.79512 6.070261,-29.305755 19.324746,-55.084805 41.530851,-80.774605 4.247162,-4.913456 4.824357,-4.998776 17.074332,-2.523944 19.576091,3.954919 36.519287,10.937784 99.025377,40.811714 55.45311,26.50307 86.17652,34.165315 138.70028,34.591045 l 19.2,0.15564 v -9.200005 -9.2 l -15.2,-0.52596 c -32.83571,-1.13617 -61.25545,-6.10334 -88.39999,-15.45044 -10.18979,-3.5088 -13.86382,-5.09012 -43.2,-18.5935 -38.43736,-17.692623 -59.8493,-25.978262 -78.1524,-30.24215 -6.68734,-1.557872 -21.652592,-3.583616 -26.596736,-3.6002 -4.394525,-0.01472 -6.117663,-0.896768 -5.14393,-2.633011 0.814443,-1.452219 11.269994,-9.8949075 18.693066,-15.0943455 18.51178,-12.9664545 45.9714,-25.8981525 68.4,-32.2119715 22.84921,-6.432225 41.42741,-8.994424 70.43899,-9.714545 39.54242,-0.981515 67.45179,2.001525 94.62922,10.114262 12.87242,3.842547 23.33178,7.795075 23.33178,8.816936 0,0.411828 -1.04569,2.192309 -2.32375,3.956623 -5.49238,7.5820175 -4.9129,16.0178395 1.54386,22.4745925 6.39428,6.3942865 14.71524,6.9639855 22.2279,1.521846 3.57775,-2.591711 5.08463,-4.960941 6.49897,-10.218138 0.50308,-1.869999 1.30185,-3.399999 1.77504,-3.399999 1.50284,0 12.74562,7.330072 22.67798,14.785591 9.33222,7.0050335 26.71882,23.3604155 29.58315,27.8285265 1.41748,2.211163 1.41427,2.222573 -2.39147,8.517973 -6.89757,11.40989 -16.09076,20.73955 -27.41261,27.81955 -8.98984,5.6217 -17.47917,8.77719 -30.77907,11.4406 l -4.6,0.9212 v 10.43545 10.435475 l 4.6,-0.56015 c 29.8167,-3.63074 56.2063,-15.049855 74.95514,-32.434015 3.37645,-3.13069 6.56782,-5.55811 7.09193,-5.39427 1.20295,0.37606 7.0035,11.79625 10.26206,20.20407 4.9955,12.889515 10.24389,33.566985 8.869,34.941875 -0.35554,0.35553 -24.18699,0.73906 -52.95879,0.85228 l -52.31237,0.20585 -0.95026,5.64012 c -0.52264,3.10206 -1.53672,6.77419 -2.25348,8.16027 -0.71678,1.38608 -1.30323,2.89803 -1.30323,3.35988 0,0.57812 17.04576,0.83972 54.71441,0.83972 49.15439,0 54.76375,0.1286 55.2,1.26544 0.95297,2.48339 0.52477,12.90614 -0.56747,13.81261 -0.76083,0.63143 -6.92128,0.63409 -22.2,0.01 -28.10992,-1.14903 -104.93465,-0.39356 -128.74694,1.26603 -90.53759,6.31 -154.80831,19.0678 -205.47053,40.78609 -6.74879,2.89313 -12.68879,5.2494 -13.2,5.23617 -0.5112,-0.0132 -3.78645,-2.3845 -7.27834,-5.2695 z M 337.6759,141.26666 c 0,-0.16407 -0.74345,-1.97901 -1.65212,-4.03319 -0.90866,-2.05419 -1.89866,-5.96994 -2.2,-8.7017 l -0.54788,-4.9668 H 256.123 178.9701 l -1.00964,5.47044 c -0.55531,3.00875 -1.7465,6.71932 -2.6471,8.24573 -0.9006,1.5264 -1.63745,3.1147 -1.63745,3.52955 0,0.46746 31.18086,0.75427 81.99999,0.75427 45.1,0 82,-0.13424 82,-0.2983 z m -0.57813,-94.949805 c 6.70984,-1.86333 11.89242,-9.018453 11.89242,-16.41878 0,-4.955432 -2.87884,-11.12792 -6.39002,-13.700794 -7.14307,-5.234193 -18.17258,-4.284225 -23.47913,2.02225 -7.49797,8.910824 -5.21779,21.446094 4.85857,26.710054 4.55437,2.37923 8.16948,2.76154 13.11816,1.38727 z m 53.07298,-0.45052 c 5.50472,-2.61216 8.27674,-10.141709 5.62298,-15.273508 -2.2926,-4.433416 -5.73285,-6.628512 -10.37921,-6.622592 -7.00172,0.009 -11.72612,4.517592 -11.73035,11.194727 -0.006,8.891763 8.56988,14.458093 16.48658,10.701373 z M 273.73744,27.226499 c 2.76038,-2.760376 2.97804,-5.432672 0.6804,-8.353648 -2.34232,-2.977781 -7.14155,-2.977781 -9.48387,0 -0.91194,1.159336 -1.65807,2.879232 -1.65807,3.821992 0,3.235248 3.53709,6.651048 7.06154,6.819408 0.58385,0.02792 2.11385,-1.001592 3.4,-2.287752 z m -38.52292,-6.932648 c 4.73583,-3.984936 2.20894,-10.7288875 -4.02,-10.7288875 -3.33971,0 -6.31861,2.7956375 -6.31861,5.9298815 0,3.17799 3.51699,6.634558 6.93861,6.819406 0.51625,0.02792 2.04625,-0.881288 3.4,-2.0204 z M 308.44263,5.3450145 c 1.7417,-0.986495 4.25081,-3.336087 5.57579,-5.221315 3.2565,-4.633427 3.87728,-12.6235015 1.3636,-17.5507345 -3.61934,-7.094487 -11.62513,-10.85064 -19.23556,-9.024927 -4.26174,1.022376 -9.79258,5.170275 -11.59693,8.697221 -4.32207,8.4482605 -0.76896,19.0247645 7.92637,23.5943835 3.74204,1.966539 12.07732,1.708323 15.96673,-0.494628 z m -55.80557,-2.147663 c 1.40864,-0.858897 3.16773,-2.734605 3.9091,-4.16824 2.74394,-5.306211 1.00082,-12.0592045 -3.9091,-15.1440605 -3.56929,-2.242562 -10.14019,-1.76587 -13.04331,0.946241 -5.64045,5.2693265 -5.71876,12.2306735 -0.19385,17.2318475 1.0318,0.933996 2.41601,1.895575 3.07601,2.136842 2.69148,0.983887 7.71632,0.488072 10.16115,-1.00263 z m -37.06904,-0.890452 c 2.97778,-2.342321 2.97778,-7.14155 0,-9.483871 -4.42535,-3.4809815 -9.89211,-0.815427 -9.89211,4.823323 0,3.367896 2.80192,6.318612 6,6.318612 0.98132,0 2.73277,-0.746128 3.89211,-1.658064 z"
       id="path839"
       inkscape:connector-curvature="0" />
    <path
       style="fill:#e2b59c;stroke-width:0.79999995"
       d="M 49.896508,311.55581 C 37.066953,308.76812 23.82916,298.03722 17.833843,285.56496 13.948201,277.48153 12.6135,270.63482 12.995868,260.74723 c 0.206381,-5.33679 0.595694,-7.44104 1.480044,-7.9997 1.630927,-1.0303 456.768408,-1.0306 458.399988,-3e-4 1.84749,1.16662 2.10274,14.47993 0.42242,22.0326 -3.9469,17.74059 -19.15211,33.19568 -36.2166,36.8118 -7.84456,1.66234 -379.528156,1.62795 -387.185212,-0.0358 z M 39.359616,238.69895 c -26.592477,-7.15112 -36.1316564,-40.74426 -17.6437,-62.13399 1.806467,-2.09 3.923556,-3.8 4.704642,-3.8 1.881988,0 17.54428,7.45732 28.055353,13.35805 16.2814,9.14009 28.808176,18.51284 40.623503,30.39521 l 7.423496,7.46562 9.3765,-4.10366 c 54.58627,-23.8899 141.0804,-39.62056 250.17649,-45.49953 20.23571,-1.09045 68.03625,-2.39389 88.23427,-2.40597 l 16.23427,-0.01 3.98508,3.72758 c 2.56199,2.39643 5.04948,5.88076 6.96573,9.75713 l 2.98065,6.02957 v 10.84286 c 0,10.56169 -0.067,10.98445 -2.58615,16.30309 -4.82275,10.18244 -14.85125,18.17612 -25.65323,20.4481 -3.05632,0.64284 -60.65483,0.87698 -206.39999,0.83902 -174.024182,-0.0453 -202.761355,-0.2142 -206.476914,-1.21336 z M 96.47591,196.70044 C 83.548053,186.30833 64.53423,173.82672 52.207819,167.64066 44.0426,163.54291 32.298045,159.38793 24.611544,157.87766 l -6.935632,-1.36273 v -7.07498 -7.07499 H 83.67591 c 41.42186,0 66,-0.28468 66,-0.76447 0,-0.42046 -0.87214,-2.04964 -1.93808,-3.6204 -1.90191,-2.80262 -3.66192,-8.9808 -3.66192,-12.8545 v -1.96062 l -62.6,-0.0122 c -34.429999,-0.006 -63.055545,-0.30142 -63.612323,-0.65483 -0.809022,-0.51354 -0.754308,-1.91688 0.272444,-6.98776 5.059857,-24.989425 15.553396,-47.873445 31.888273,-69.541075 5.194157,-6.88986 12.087429,-14.817532 13.764028,-15.829444 1.557712,-0.94016 19.947014,3.034912 30.756482,6.648383 15.034026,5.025701 46.799626,19.135421 81.931096,36.392361 7.48,3.67425 20.26,9.3613 28.4,12.63789 40.52377,16.312045 66.47851,21.318475 110.62462,21.338465 l 18.22462,0.008 -0.22462,-9.800005 -0.22463,-9.8 -15.6,-0.51608 c -26.42397,-0.87392 -48.99344,-4.11799 -71.30216,-10.24851 -16.63634,-4.57174 -27.93039,-9.01425 -57.49783,-22.61679 -40.66159,-18.706389 -57.22102,-25.309092 -74.80823,-29.828092 -10.95882,-2.815848 -25.768402,-5.19032 -32.372062,-5.19032 -2.158904,0 -4.123547,-0.3208 -4.365872,-0.712896 -1.036673,-1.677369 16.6347,-15.1742435 31.322044,-23.9228575 32.31793,-19.2503795 70.14896,-30.6091695 109.82412,-32.9747585 35.93615,-2.142655 70.29514,-0.03436 96.5016,5.921416 13.19075,2.99778 33.81508,9.749693 35.8478,11.735716 0.46265,0.452024 0.11826,1.425 -0.90003,2.542786 -3.7936,4.164256 -5.35556,10.3041455 -4.1049,16.1358155 1.22788,5.725389 7.47385,11.917204 13.27683,13.1617215 9.36993,2.009488 17.90818,-2.8759155 21.049,-12.0437805 0.83241,-2.429768 1.91368,-4.207187 2.53007,-4.158985 1.72481,0.134884 16.94697,10.419275 25.31329,17.1021685 7.59392,6.06591 23.16564,21.110966 25.4899,24.627773 1.1245,1.701483 0.95671,2.222753 -2.7023,8.394983 -2.58909,4.36742 -6.59204,9.29644 -11.90127,14.65462 -12.3142,12.42771 -23.0182,18.31352 -41.2,22.65465 l -9.2,2.19662 0.28363,10.3425 c 0.156,5.688385 0.42032,10.568925 0.58736,10.845665 0.9237,1.5302 24.2962,-3.03499 35.5757,-6.948765 17.1551,-5.95247 31.51755,-14.25787 43.36901,-25.07904 3.41864,-3.12144 6.58992,-5.67535 7.0473,-5.67535 0.45738,0 2.78446,4.06121 5.17128,9.02492 7.69092,15.99423 15.67226,43.801895 13.04907,45.464105 -0.59584,0.37756 -24.34986,0.69199 -52.7867,0.69873 l -51.70336,0.0122 -0.83376,5.61752 c -0.45857,3.08963 -1.58206,7.16329 -2.49664,9.05257 -0.91459,1.8893 -1.66289,3.68141 -1.66289,3.98249 0,0.30109 24.67402,0.54742 54.83115,0.54742 h 54.83115 l -0.23116,7 -0.23114,7 -2.8,-0.0704 c -1.54,-0.0387 -17.56,-0.5059 -35.6,-1.03817 -64.0002,-1.88834 -140.46599,1.93949 -189.99999,9.51128 -54.85148,8.38461 -94.25532,18.60996 -127.95853,33.20541 -6.59391,2.85554 -12.09075,5.18432 -12.2152,5.17504 -0.12445,-0.009 -3.82627,-2.91073 -8.22627,-6.44768 z m 241.99999,-54.6388 c 0,-0.16683 -0.89934,-2.26776 -1.99854,-4.66872 -1.0992,-2.40097 -2.23049,-6.58447 -2.51397,-9.29667 l -0.51541,-4.93128 h -77.38604 -77.38603 l -0.5,2.5 c -0.275,1.375 -0.5,3.30427 -0.5,4.28726 0,0.98299 -1.07544,3.90799 -2.38987,6.5 -1.31443,2.59201 -2.39443,4.98273 -2.4,5.31273 -0.006,0.33 37.24987,0.6 82.78986,0.6 45.54,0 82.8,-0.13649 82.8,-0.30332 z m -1.34337,-94.954375 c 3.90498,-1.08435 9.17671,-5.82726 11.05084,-9.942303 2.09401,-4.597823 1.92472,-10.800919 -0.421,-15.426591 -2.30862,-4.552511 -3.80784,-5.983116 -8.50085,-8.11185 -12.01743,-5.4510545 -25.0502,3.04824 -25.14946,16.401178 -0.0884,11.885836 11.29898,20.334436 23.02047,17.079566 z m 54.78533,-1.30377 c 7.08402,-5.28897 7.45903,-15.305652 0.7585,-20.259564 -3.8381,-2.837632 -10.48936,-3.134504 -14.20046,-0.633824 -8.34527,5.62336 -6.97904,18.258178 2.40041,22.198858 2.83297,1.19024 8.61436,0.50669 11.04155,-1.30547 z M 271.98083,29.478227 c 2.65363,-0.925056 4.89507,-4.192184 4.89507,-7.135072 0,-2.63912 -4.22084,-6.378192 -7.2,-6.378192 -2.94068,0 -7.2,3.727392 -7.2,6.300816 0,3.76868 2.07455,6.201184 6.88063,8.067872 0.0443,0.0172 1.22528,-0.36772 2.6243,-0.855424 z m -37.94362,-7.445536 c 7.4781,-3.124552 4.98546,-13.2677275 -3.26049,-13.2677275 -2.44297,0 -6.70081,4.0036735 -6.70081,6.3008185 0,2.876205 1.89736,5.900477 4.3806,6.982429 3.00763,1.310416 2.40326,1.312096 5.5807,-0.01552 z M 307.709,6.4612325 c 6.09947,-2.770606 9.97909,-9.115101 9.94934,-16.270573 -0.0229,-5.4978265 -2.12732,-9.9978775 -6.3764,-13.6349285 -6.22705,-5.33013 -14.73,-5.649015 -21.80952,-0.81792 -7.85478,5.360123 -9.72998,16.9838755 -4.0655,25.2006655 4.31993,6.266407 14.89809,8.885922 22.30208,5.522756 z m -55.02578,-2.491947 c 8.00405,-4.880134 7.64894,-16.8469795 -0.62326,-21.0030785 -5.99129,-3.010131 -12.64085,-0.897315 -15.76412,5.008853 -2.33719,4.4197045 -2.29946,7.4310865 0.14539,11.6029005 3.35212,5.719974 10.77239,7.726181 16.24199,4.391325 z m -36.54578,-1.542783 c 5.19558,-5.195575 1.08374,-13.0547825 -6.12277,-11.702831 -3.32576,0.623913 -5.13876,3.075309 -5.13876,6.948183 0,2.313004 0.53206,3.398581 2.46138,5.021994 3.22551,2.714095 5.89996,2.632846 8.80015,-0.267346 z"
       id="path837"
       inkscape:connector-curvature="0" />
    <path
       style="fill:#efa14b;stroke-width:0.79999995"
       d="m 53.153261,311.8957 c -13.048159,-2.20068 -25.989189,-11.07757 -32.933978,-22.59106 -4.886518,-8.10115 -6.791503,-15.01468 -6.871999,-24.93968 -0.03925,-4.84 0.18733,-9.43 0.50352,-10.2 0.54563,-1.32873 12.243908,-1.4 229.825106,-1.4 217.58119,0 229.27947,0.0713 229.82509,1.4 0.3162,0.77 0.53362,5.18 0.48316,9.8 -0.0736,6.73802 -0.51112,9.69119 -2.2114,14.92591 -4.82225,14.84651 -16.45903,26.48271 -31.69686,31.69527 l -5.2,1.77882 -188.79999,0.11303 c -103.84,0.0622 -190.655192,-0.19986 -192.922649,-0.58229 z M 41.04975,238.31456 c -9.568971,-1.88549 -20.017482,-10.12893 -24.477226,-19.31153 -4.372268,-9.00248 -4.650926,-22.61896 -0.651557,-31.83807 2.176238,-5.01653 8.112437,-12.75884 10.180438,-13.27788 2.76591,-0.6942 28.244268,12.36673 41.974506,21.51732 11.67799,7.78286 31.999999,25.39564 31.999999,27.73392 0,2.07414 3.66959,1.337 12.07758,-2.42609 52.45749,-23.47797 141.37085,-39.62554 250.72241,-45.53372 19.55759,-1.05669 68.39099,-2.38697 88.17216,-2.40192 l 15.37217,-0.0116 2.75862,2.42211 c 6.93347,6.08766 10.89705,15.97307 10.89705,27.17789 0,17.97957 -9.997,31.18976 -26.94368,35.60381 -4.02142,1.04745 -29.7144,1.1853 -206.62439,1.10854 C 135.39028,239.02914 42.934138,238.6859 41.04975,238.31459 Z M 98.50447,197.92634 C 86.617038,187.88568 65.60802,173.96877 52.038698,167.14625 44.269664,163.24006 28.60898,157.85785 22.436747,156.97276 l -4.360835,-0.62534 -0.236002,-6.32177 c -0.168628,-4.51704 0.05975,-6.50938 0.8,-6.97897 0.569801,-0.36147 30.466001,-0.66273 66.436,-0.66947 35.97,-0.006 65.4,-0.23807 65.4,-0.51408 0,-0.276 -1.07683,-2.706 -2.39294,-5.4 -1.31611,-2.69399 -2.67105,-6.87816 -3.01097,-9.29816 l -0.61804,-4.4 -63.015993,-0.20486 c -53.76135,-0.17477 -63.080443,-0.3728 -63.45483,-1.34843 -0.762407,-1.9868 5.027436,-23.666335 8.879035,-33.246715 6.598031,-16.41181 15.38753,-31.44043 26.389354,-45.12151 7.642035,-9.5031 10.477786,-12.478492 11.89284,-12.478492 3.05372,0 18.67053,3.6236 26.531544,6.156175 17.36544,5.594597 37.24055,14.333117 82.8,36.404827 31.52748,15.27379 58.13296,24.95908 81.63878,29.719305 16.70141,3.38223 31.82639,4.68117 55.96121,4.80595 l 22,0.11375 0.22391,-10.200005 0.22389,-10.2 -7.82389,-0.0124 c -27.17133,-0.043 -57.73303,-4.3053 -82.98265,-11.57324 -16.19277,-4.66099 -25.90945,-8.54364 -55.65396,-22.23858 C 135.91724,29.331763 116.21021,22.427867 92.802382,19.968371 87.782822,19.440963 82.246756,18.765187 80.500012,18.466651 l -3.175897,-0.542784 3.040242,-2.779463 c 9.537505,-8.7193935 27.501163,-20.3984475 43.711553,-28.418979 18.68113,-9.243003 34.1834,-14.69575 55.2,-19.415967 21.59103,-4.849234 27.91207,-5.346838 67.59999,-5.321609 35.38099,0.02249 36.22698,0.06038 49.2,2.203821 7.26,1.199514 17.40562,3.243358 22.54582,4.541876 10.38238,2.622796 30.01149,9.068724 31.18274,10.239977 0.47114,0.47114 -0.23597,2.344856 -1.8876,5.001766 -2.35463,3.7878 -2.64096,4.877431 -2.64096,10.0501295 0,5.166071 0.2654,6.179332 2.42235,9.24829 1.33228,1.895614 3.97317,4.536626 5.86864,5.868914 3.06725,2.1559155 4.08316,2.4223405 9.23672,2.4223405 5.05021,0 6.29226,-0.309978 9.71626,-2.4248925 4.38772,-2.71018 7.15078,-6.299114 8.38857,-10.895938 0.45602,-1.693542 1.21828,-3.079168 1.69391,-3.079168 1.64519,0 21.1051,13.563385 29.15066,20.3177585 9.70432,8.14692 21.92289,20.928623 21.92289,22.933272 0,2.16546 -8.81713,14.88133 -14.1312,20.3797 -7.92249,8.19728 -17.78105,14.94291 -27.4688,18.79527 -2.42,0.96232 -8.9,2.88015 -14.4,4.26184 l -10,2.51216 -0.23217,9.2 c -0.30792,12.201425 -0.13268,12.800005 3.74716,12.800005 1.69647,0 7.44872,-0.74124 12.78276,-1.64718 24.01813,-4.0793 48.68262,-15.754435 64.54482,-30.552825 3.18351,-2.97 6.12811,-5.4 6.54357,-5.4 1.19096,0 9.41414,17.93942 12.4681,27.2 3.42741,10.393005 6.49105,23.546285 5.86459,25.178805 -0.41355,1.07771 -6.61768,1.2212 -52.80041,1.2212 h -52.33181 l -0.48238,1.8 c -0.26531,0.99 -0.49081,3.24 -0.50112,5 -0.0103,1.76 -0.91522,5.12574 -2.01092,7.47943 -1.09571,2.35369 -1.99219,4.60369 -1.99219,5 0,0.42029 22.47547,0.72056 53.93457,0.72056 29.66401,0 54.50401,0.21852 55.2,0.4856 1.00654,0.38624 1.26543,1.78207 1.26543,6.82267 v 6.33708 l -14.2,-0.62267 c -23.13411,-1.01444 -108.19755,-0.71741 -126.6,0.44205 -67.57562,4.25769 -114.53342,10.97922 -160.39999,22.95962 -18.01358,4.70517 -41.34181,12.57059 -55.31848,18.65137 -6.22516,2.70836 -11.80516,4.9084 -12.4,4.88899 -0.59483,-0.0194 -3.40867,-2.00091 -6.25296,-4.40333 z m 239.9445,-55.5278 c 1.00081,-0.63298 0.90028,-1.22729 -0.68456,-4.04714 -1.0217,-1.81786 -2.28487,-6.06848 -2.80704,-9.44582 l -0.94941,-6.14061 -78.16603,-0.20394 c -42.99131,-0.11217 -78.16874,0.0678 -78.17206,0.4 -0.0418,4.17656 -2.07712,11.69021 -4.02453,14.85709 -2.78965,4.53651 -2.74802,4.33059 -0.96943,4.79538 2.80872,0.734 164.60437,0.52419 165.77306,-0.21496 z m 0.65263,-95.676015 c 8.22925,-3.43755 12.92957,-13.145394 10.52424,-21.736362 -0.73521,-2.625912 -2.28471,-5.027168 -5.10287,-7.907891 -3.32373,-3.397516 -4.79774,-4.294155 -8.24707,-5.016667 -7.93776,-1.662681 -15.10887,1.15174 -19.74607,7.74967 -3.22289,4.585632 -3.87298,12.63616 -1.40693,17.423063 1.82536,3.543227 5.79587,7.535937 9.353,9.405307 3.10779,1.63321 10.80983,1.67686 14.6257,0.0829 z m 52.63955,-0.39789 c 3.7906,-2.34272 5.93475,-6.20626 5.93475,-10.693825 0,-12.083647 -13.74841,-17.494031 -21.80197,-8.579687 -5.90065,6.531312 -4.17917,15.579092 3.80197,19.982432 2.69888,1.48902 9.1193,1.11178 12.06525,-0.70892 z M 274.41452,28.293851 c 1.96475,-1.653232 2.46138,-2.693432 2.46138,-5.155392 0,-4.581056 -2.82385,-7.537132 -7.2,-7.537132 -4.37614,0 -7.2,2.956076 -7.2,7.537132 0,2.46196 0.49664,3.50216 2.46139,5.155392 1.38646,1.166632 3.45587,2.071112 4.73861,2.071112 1.28275,0 3.35216,-0.90448 4.73862,-2.071112 z m -38.4,-7.2 c 2.03531,-1.712608 2.46139,-2.657832 2.46139,-5.460552 0,-4.543251 -2.72517,-7.2319715 -7.33,-7.2319715 -6.59325,0 -9.50648,7.6502375 -4.73154,12.4251715 2.98118,2.981192 6.26622,3.072672 9.60015,0.267352 z M 309.56607,5.7901285 c 2.18456,-1.350609 4.64653,-3.850951 6.08868,-6.183577 2.06021,-3.3323 2.42115,-4.710039 2.42115,-9.241587 0,-4.5313135 -0.35789,-5.8975825 -2.4,-9.1619255 -3.50012,-5.595013 -7.90208,-8.472108 -13.77747,-9.00487 -6.00554,-0.544564 -9.85285,0.677449 -14.05213,4.463347 -5.60301,5.051449 -7.43068,11.863988 -5.28605,19.7034475 1.12793,4.123016 7.35302,10.270036 11.60288,11.457367 4.96278,1.386508 11.20552,0.562867 15.40294,-2.032202 z m -56.29061,-1.730183 c 2.99792,-1.729298 5.96992,-6.855412 5.98728,-10.326852 0.0189,-3.7742935 -2.67626,-8.5220805 -6.00575,-10.5798205 -8.15836,-5.042139 -18.78108,0.709938 -18.78108,10.1697255 0,10.133386 9.97226,15.828822 18.79955,10.736947 z m -36.66235,-1.210075 c 2.97879,-2.562244 3.12143,-7.442033 0.30516,-10.439809 -2.90659,-3.0939265 -7.98268,-2.8977495 -10.77125,0.416283 -2.80532,3.333937 -2.71384,6.618971 0.26735,9.600158 3.00226,3.002263 7.00731,3.16852 10.19874,0.423368 z"
       id="path835"
       inkscape:connector-curvature="0" />
    <path
       style="fill:#e16512;stroke-width:0.79999995"
       d="m 53.636394,311.12278 c -17.60299,-2.61767 -33.414029,-17.1005 -38.382108,-35.15782 -1.089749,-3.96088 -1.515576,-18.77883 -0.603482,-21 0.545623,-1.32872 12.205813,-1.4 229.025106,-1.4 216.81929,0 228.47948,0.0713 229.02509,1.4 0.3162,0.77 0.52053,5 0.45408,9.4 -0.32146,21.28592 -13.35528,38.87935 -33.87918,45.7311 -4.21555,1.40732 -12.29763,1.47347 -192.79999,1.5779 -103.62,0.0599 -190.397781,-0.18809 -192.839516,-0.55118 z M 35.807887,236.40763 C 26.55552,232.60334 20.8489,227.24945 16.576503,218.36496 c -2.420512,-5.03347 -2.500591,-5.54586 -2.500591,-16 0,-10.41781 0.08756,-10.98401 2.474255,-16 1.360841,-2.86 4.098113,-6.98628 6.082827,-9.1695 l 3.608572,-3.96951 8.317173,3.83665 c 25.009576,11.5367 47.920871,27.1362 61.627003,41.95967 2.920408,3.15848 5.695828,5.74269 6.167608,5.74269 0.47178,0 5.09245,-1.84372 10.26814,-4.09716 65.83981,-28.66585 177.03071,-45.34115 312.47017,-46.86114 l 42.21577,-0.47378 3.26249,3.51604 c 6.13585,6.61269 9.50598,15.83877 9.50598,26.0236 0,15.68574 -9.23738,28.98734 -23.52524,33.87575 -4.69401,1.606 -6.08474,1.61656 -210.39999,1.5977 l -205.674759,-0.019 z M 344.0759,146.30199 c -4.1972,-2.43771 -8.01772,-9.90231 -9.15995,-17.89686 l -0.92014,-6.44016 -77.51595,-0.204 c -42.63377,-0.11221 -77.78558,0.0678 -78.11512,0.4 -0.32955,0.3322 -0.99252,3.124 -1.47327,6.204 -1.01664,6.51319 -4.7706,13.39003 -8.84329,16.19999 -3.12574,2.1566 -9.20671,2.42816 -13.09165,0.58464 -4.25917,-2.0211 -10.08062,-13.31206 -10.08062,-19.55178 0,-1.16207 -0.432,-2.54485 -0.96,-3.07285 -0.73022,-0.73022 -15.85778,-0.96 -63.2,-0.96 -59.077968,0 -62.239998,-0.0722 -62.239998,-1.42008 0,-2.95546 4.897878,-21.313025 7.68118,-28.789565 7.064163,-18.97581 20.377217,-40.90044 34.041028,-56.060547 2.328054,-2.582991 4.378467,-4.129815 5.474332,-4.129815 3.933202,0 18.643972,3.496832 28.403458,6.751662 12.14474,4.05033 26.65571,10.18747 48.4,20.46988 8.58,4.0573 17.58,8.06061 20,8.89625 2.42,0.83564 6.46228,2.78829 8.98287,4.33922 5.61334,3.45394 16.70142,8.6439 31.01713,14.51809 39.91802,16.379635 64.09149,21.334775 109.20106,22.384285 18.16369,0.4226 20.93093,0.32748 21.82533,-0.7502 0.73986,-0.89148 0.96169,-3.9795 0.79893,-11.121675 l -0.22533,-9.88751 -14,-0.56661 c -46.71218,-1.89054 -79.80959,-9.56907 -118.39999,-27.46859 -22.33675,-10.36051 -39.25138,-18.01517 -47.2,-21.360179 -24.79507,-10.434471 -45.16995,-16.483551 -61.2,-18.169599 -13.826461,-1.454272 -14.266542,-1.54992 -13.176226,-2.863669 0.517674,-0.623761 4.954102,-4.142922 9.85873,-7.8203595 30.958526,-23.2123935 68.948866,-38.4360745 110.517496,-44.2871265 15.2579,-2.147648 77.13367,-2.147799 90.79999,-2.2e-4 20.02419,3.146675 43.77549,9.180654 54.08603,13.740461 l 4.32284,1.911767 -1.993,2.936858 c -5.55384,8.1840345 -4.74856,16.7807575 2.24329,23.9482935 5.56591,5.7057565 11.49063,7.2811815 19.26487,5.1226625 4.32656,-1.20127 11.37732,-8.3182335 12.11,-12.2236825 0.30104,-1.604724 0.84162,-3.099546 1.20128,-3.321827 0.81169,-0.501655 18.28891,11.117946 25.00443,16.6240135 10.18916,8.354117 25.36026,23.670532 25.36026,25.603177 0,2.00173 -8.27066,13.67474 -13.85219,19.55063 -11.35852,11.95757 -25.00757,19.47618 -41.74781,22.99686 -10.80857,2.27318 -10,1.23154 -10,12.88258 0,5.53836 0.37267,10.766085 0.82815,11.617155 1.05939,1.97949 2.91471,1.96368 15.27159,-0.13018 24.47093,-4.14657 49.12762,-15.728935 65.23923,-30.645815 3.13457,-2.90213 6.04341,-5.2766 6.46409,-5.2766 1.41115,0 9.52775,18.66952 13.04254,30 2.07006,6.673125 4.74206,18.039095 4.74879,20.200005 l 0.006,1.8 h -52.0198 -52.0198 l -0.7802,2.05208 c -0.42911,1.12864 -0.7802,3.59945 -0.7802,5.49068 0,4.75442 -5.04497,14.62484 -8.7183,17.05723 -3.61116,2.39123 -10.48843,2.4563 -14.4817,0.13703 z m -5.17461,-98.696075 c 9.53928,-3.98577 14.36267,-14.0426 11.24168,-23.439032 -2.81939,-8.488374 -9.46485,-13.238057 -18.49248,-13.217045 -10.99759,0.0256 -18.77459,7.934437 -18.77459,19.092901 0,10.600486 8.07808,18.720156 18.6257,18.721596 2.54413,3.5e-4 5.87399,-0.52094 7.39969,-1.15842 z m 53.23727,-0.65999 c 6.0254,-4.06051 8.08985,-11.446035 5.01231,-17.93145 -2.51825,-5.306824 -9.46855,-8.266872 -15.5597,-6.626696 -6.45462,1.738048 -11.19134,9.134136 -9.89098,15.444126 0.78126,3.79107 3.87526,8.08799 6.8951,9.57588 3.99408,1.9679 10.25456,1.7544 13.54327,-0.46186 z M 273.69192,29.956683 c 1.2851,-0.664552 2.70722,-1.900888 3.16027,-2.747408 1.22443,-2.28788 0.99722,-7.035808 -0.44181,-9.23204 -2.94752,-4.498487 -11.13732,-4.247846 -13.54839,0.414632 -4.05315,7.837936 3.15403,15.534176 10.82993,11.564816 z m -38.4,-7.2 c 2.93711,-1.51884 3.98399,-3.453136 3.98399,-7.361122 0,-3.900978 -1.651,-6.2593195 -5.20248,-7.4314165 -3.82293,-1.26168 -8.01848,0.147273 -9.61144,3.2277245 -4.05315,7.837934 3.15403,15.534174 10.82993,11.564814 z M 305.27483,8.6817805 c 9.49543,-2.390976 15.91483,-13.824231 13.20203,-23.5134185 -1.26322,-4.511749 -6.12953,-10.142 -10.66255,-12.336395 -8.98639,-4.350238 -20.76361,-0.09473 -25.01668,9.039373 -7.13679,15.3273155 5.97423,30.965934 22.4772,26.8104405 z m -54.66252,-2.452202 c 3.89736,-1.167679 8.39414,-6.014746 9.10742,-9.816883 1.73485,-9.2475625 -6.81575,-17.7613245 -15.78263,-15.7146195 -9.36666,2.137956 -13.47572,12.9893005 -7.85618,20.7468575 1.32276,1.826017 2.49276,3.32545 2.6,3.332075 0.10724,0.0066 1.63499,0.530824 3.39499,1.164886 3.966,1.428805 4.65067,1.451879 8.5364,0.287684 z M 216.049,4.3788775 c 4.55996,-2.35805 4.91497,-10.580479 0.58768,-13.611433 -2.76123,-1.9340405 -8.28275,-1.5532325 -10.56461,0.728622 -7.1084,7.108401 0.97042,17.540257 9.97693,12.882811 z"
       id="path833"
       inkscape:connector-curvature="0" />
    <path
       style="fill:#c6471b;stroke-width:0.79999995"
       d="M 35.807887,236.40763 C 26.55552,232.60334 20.8489,227.24945 16.576503,218.36496 c -2.420512,-5.03347 -2.500591,-5.54586 -2.500591,-16 0,-10.41781 0.08756,-10.98401 2.474255,-16 1.360841,-2.86 4.098113,-6.98628 6.082827,-9.1695 l 3.608572,-3.96951 8.317173,3.83665 c 25.009576,11.5367 47.920871,27.1362 61.627003,41.95967 2.920408,3.15848 5.695828,5.74269 6.167608,5.74269 0.47178,0 5.09245,-1.84372 10.26814,-4.09716 65.83981,-28.66585 177.03071,-45.34115 312.47017,-46.86114 l 42.21577,-0.47378 3.26249,3.51604 c 6.13585,6.61269 9.50598,15.83877 9.50598,26.0236 0,15.68574 -9.23738,28.98734 -23.52524,33.87575 -4.69401,1.606 -6.08474,1.61656 -210.39999,1.5977 l -205.674759,-0.019 z m 309.884463,-89.3355 c -5.17702,-2.06557 -9.4619,-9.46677 -10.76633,-18.59651 l -0.93021,-6.51065 -77.51595,-0.204 c -42.63377,-0.11221 -77.78558,0.0678 -78.11512,0.4 -0.32955,0.3322 -0.99252,3.124 -1.47327,6.204 -0.95268,6.10343 -4.65045,13.17935 -8.33427,15.94817 -3.11257,2.33946 -10.53993,2.60541 -13.89784,0.49764 -4.5932,-2.88318 -9.78345,-13.08549 -9.78345,-19.23101 0,-1.15215 -0.432,-2.5268 -0.96,-3.0548 -0.73023,-0.73024 -15.87341,-0.96 -63.270318,-0.96 H 18.335275 l 0.559826,-3.4 C 21.999728,99.309575 31.680768,75.511965 43.866673,56.780655 48.660474,49.411975 58.446753,36.967122 62.390916,33.224067 l 2.466666,-2.340888 9.009164,1.77128 c 16.921564,3.326935 35.641084,10.338886 65.809164,24.650766 8.8,4.17476 18.52,8.46808 21.6,9.54072 3.08,1.07264 7.58,3.16076 10,4.64027 6.29431,3.84815 12.56912,6.90195 25.26239,12.29458 43.13337,18.324885 67.75569,23.680935 113.70564,24.734175 17.55287,0.40234 22.01744,0.29197 23.05602,-0.56997 1.10628,-0.91813 1.25718,-2.93895 1.06967,-14.324485 -0.20217,-12.27578 -0.0903,-13.50003 1.51308,-16.56311 6.34447,-12.12012 18.88943,-14.25546 27.32253,-4.6507 4.04286,4.60457 4.3546,6.05943 4.12975,19.27346 -0.23681,13.917205 0.19744,15.484805 4.28956,15.484805 5.61879,0 21.60737,-3.29366 31.30678,-6.44922 17.6848,-5.753495 33.53491,-14.713755 46.91039,-26.519045 l 5.36581,-4.7359 3.53343,7.05208 c 6.14501,12.26435 12.07716,30.063155 13.74886,41.252085 l 0.56775,3.8 H 420.94693 368.8363 l -0.7802,2.05208 c -0.42911,1.12864 -0.7802,3.59945 -0.7802,5.49068 0,5.3289 -5.08257,14.74495 -9.2,17.04407 -3.42617,1.91313 -8.87948,2.31841 -12.38355,0.92033 z"
       id="path831"
       inkscape:connector-curvature="0" />
    <path
       style="fill:#613a16;stroke-width:0.79999995"
       d="m 36.7786,236.52114 c -9.541475,-3.25815 -17.749362,-11.28101 -21.210912,-20.73278 -1.70443,-4.65394 -2.317282,-16.72185 -1.137702,-22.40292 1.433303,-6.90305 7.353238,-16.93717 11.210532,-19.00153 2.458142,-1.31556 25.69755,10.52421 42.211072,21.50525 11.269037,7.4936 23.407368,17.54307 29.11312,24.10312 2.283128,2.62498 4.77728,4.77268 5.54255,4.77268 0.76527,0 5.43208,-1.80041 10.3707,-4.00091 41.88143,-18.66114 111.91175,-33.56211 191.59794,-40.76798 44.43972,-4.01861 74.44337,-5.50121 124.8,-6.16687 l 37.6,-0.49704 3.85595,4.14196 c 4.9593,5.32711 7.52659,11.0206 8.6145,19.10436 2.29978,17.08871 -4.77184,31.29647 -19.10243,38.37914 l -6.08487,3.00734 -206.04157,0.18253 -206.041569,0.18253 z m 310.20711,-89.72802 c -6.91614,-2.46554 -11.12583,-9.47414 -12.44287,-20.71583 -1.13994,-9.73 -0.29814,-41.321035 1.23106,-46.199765 2.47138,-7.88456 10.09417,-13.43397 17.15271,-12.48722 4.52422,0.60682 9.04806,3.83658 11.70507,8.35674 2.13378,3.63003 2.27679,4.50689 2.90597,17.81792 0.9795,20.722315 0.98402,26.912615 0.0248,34.009235 -1.43686,10.63065 -6.07609,17.6572 -12.91141,19.55556 -3.68615,1.02374 -3.87221,1.01557 -7.66535,-0.33664 z M 157.1281,145.48346 c -3.43759,-0.99465 -7.32218,-5.04115 -9.58562,-9.98515 -2.80183,-6.12002 -3.6296,-14.88786 -3.33307,-35.30436 l 0.2665,-18.348345 2.4,-4.66172 c 4.42667,-8.59831 10.94334,-11.70916 18.4906,-8.82684 5.08108,1.94048 8.57213,5.24395 10.78142,10.20209 1.74406,3.91407 1.89505,5.4332 2.17667,21.899195 0.23812,13.92288 0.0184,19.37828 -1.03123,25.6 -1.91689,11.36283 -6.01794,17.57887 -12.81746,19.42763 -3.66154,0.99557 -3.89871,0.99549 -7.34781,-0.002 z"
       id="path829"
       inkscape:connector-curvature="0" />
    <path
       style="fill:#040201;stroke-width:0.79999995"
       d="m 344.7887,144.6538 c -3.95364,-2.29287 -7.61393,-8.65028 -8.72947,-15.16187 -0.56861,-3.31912 -0.80489,-13.10164 -0.63762,-26.4 0.25513,-20.283795 0.34069,-21.278245 2.1437,-24.917565 6.37242,-12.86252 20.65082,-13.07556 26.85207,-0.40064 l 2.06567,4.22206 0.14064,23.984595 c 0.15385,26.23563 -0.17612,28.72413 -4.57301,34.48877 -4.52835,5.93697 -11.37746,7.59733 -17.26198,4.18465 z m -189.22133,-1.04308 c -3.37723,-1.46962 -7.22565,-7.27896 -8.74138,-13.19544 -1.01119,-3.94707 -1.19687,-8.98777 -0.99643,-27.05067 l 0.24635,-22.199645 2.38906,-4.31377 c 4.40811,-7.95943 11.18717,-10.39305 18.5103,-6.64503 4.46751,2.28649 7.23191,5.78814 8.78376,11.12634 1.79729,6.18246 1.27478,45.913985 -0.67433,51.276155 -3.72101,10.23681 -11.36884,14.54795 -19.51733,11.00206 z"
       id="path827"
       inkscape:connector-curvature="0" />
  </g>
</svg>
