<?xml version="1.0" encoding="UTF-8" standalone="no"?>
<!-- Created with Inkscape (http://www.inkscape.org/) -->

<svg
   xmlns:dc="http://purl.org/dc/elements/1.1/"
   xmlns:cc="http://creativecommons.org/ns#"
   xmlns:rdf="http://www.w3.org/1999/02/22-rdf-syntax-ns#"
   xmlns:svg="http://www.w3.org/2000/svg"
   xmlns="http://www.w3.org/2000/svg"
   xmlns:sodipodi="http://sodipodi.sourceforge.net/DTD/sodipodi-0.dtd"
   xmlns:inkscape="http://www.inkscape.org/namespaces/inkscape"
   version="1.1"
   id="svg4518"
   width="500"
   height="500"
   viewBox="0 0 500 500"
   sodipodi:docname="mascotte1.svg"
   inkscape:version="0.92.3 (2405546, 2018-03-11)">
  <metadata
     id="metadata4524">
    <rdf:RDF>
      <cc:Work
         rdf:about="">
        <dc:format>image/svg+xml</dc:format>
        <dc:type
           rdf:resource="http://purl.org/dc/dcmitype/StillImage" />
        <dc:title></dc:title>
      </cc:Work>
    </rdf:RDF>
  </metadata>
  <defs
     id="defs4522" />
  <sodipodi:namedview
     pagecolor="#ffffff"
     bordercolor="#666666"
     borderopacity="1"
     objecttolerance="10"
     gridtolerance="10"
     guidetolerance="10"
     inkscape:pageopacity="0"
     inkscape:pageshadow="2"
     inkscape:window-width="1366"
     inkscape:window-height="715"
     id="namedview4520"
     showgrid="false"
     fit-margin-top="0"
     fit-margin-left="0"
     fit-margin-right="0"
     fit-margin-bottom="0"
     inkscape:zoom="0.70710678"
     inkscape:cx="335.55816"
     inkscape:cy="226.51196"
     inkscape:window-x="-8"
     inkscape:window-y="-8"
     inkscape:window-maximized="1"
     inkscape:current-layer="svg4518" />
  <g
     id="g4528"
     transform="translate(46.893618,54.187438)">
    <path
       style="fill:#edcaab;stroke-width:0.80000001"
       d="m 10.452641,368.93788 c -18.4383903,-2.73317 -34.535218,-17.06642 -39.990309,-35.60894 -1.812764,-6.1618 -2.102501,-22.65523 -0.433423,-24.6728 1.018099,-1.23067 17.746575,-1.32631 230.000001,-1.31495 142.64562,0.008 229.35424,0.29771 230.10205,0.76978 1.85088,1.16842 2.11001,15.24748 0.42042,22.84187 -3.71092,16.67987 -16.79125,30.88253 -33.62042,36.50515 l -5.6,1.87095 -188.4,0.10674 c -103.620007,0.0587 -190.235247,-0.1653 -192.478319,-0.4978 z M -2.6690463,295.56235 c -1.1,-0.19179 -4.927313,-1.7524 -8.5051387,-3.468 -10.304677,-4.94124 -17.292104,-14.04459 -19.536473,-25.45249 -1.253317,-6.37049 -0.556936,-16.92052 1.468785,-22.25178 2.55539,-6.72524 9.962091,-16.26114 12.630308,-16.26114 0.623923,0 6.266232,2.54509 12.5384617,5.65577 24.1155733,11.95998 41.7007383,24.03711 56.1315783,38.55 l 7.127528,7.16806 9.67247,-4.18831 C 117.60036,254.20857 190.3824,239.56558 281.33096,232.56721 c 40.79295,-3.13896 73.39533,-4.41319 113.28395,-4.42757 l 29.68396,-0.0107 4.15934,4.39788 c 6.55035,6.92604 9.65575,15.45798 9.66812,26.56274 0.0188,16.8725 -10.58313,30.83758 -27.14057,35.75016 -3.9506,1.17214 -22.83972,1.27932 -208,1.18027 C 90.975613,295.96009 -1.5690463,295.75413 -2.6690463,295.56235 Z M 59.534583,258.66624 c -1.1121,-0.73552 -5.39287,-3.99425 -9.512812,-7.24163 C 37.887595,241.86034 20.227995,230.40864 8.6628617,224.60463 0.57738265,220.5469 -11.044026,216.43334 -19.069046,214.78854 l -7.200001,-1.4757 -0.231782,-7.5251 c -0.168815,-5.48077 0.04852,-7.70292 0.8,-8.1797 0.56748,-0.36003 19.5915817,-0.66012 42.275782,-0.66686 l 41.244,-0.0122 0.99511,-5.80001 c 0.54732,-3.19 1.50476,-6.7 2.12766,-7.8 2.35541,-4.15952 4.2789,-3.972 -43.010769,-4.19322 l -44.200001,-0.20682 -0.249036,-1.7496 c -0.435335,-3.05844 5.331794,-24.60048 9.101097,-33.99547 4.377635,-10.91125 9.7845787,-21.20253 16.3998337,-31.21453 6.682093,-10.11316 18.3809203,-24.679924 21.2355063,-26.44134 1.581044,-0.975576 19.886953,3.071696 31.112601,6.878728 17.794998,6.034934 24.743068,9.066182 67.305125,29.363392 29.76235,14.19321 45.60615,21.03314 61.64011,26.61065 28.93571,10.06547 48.04917,13.23668 83.85477,13.91278 l 22.4,0.42297 4.37932,-6.28998 c 2.40864,-3.45948 5.60052,-7.64169 7.09309,-9.29379 1.49257,-1.65209 2.44169,-3.00381 2.10915,-3.00381 -39.26592,0 -65.84797,-2.68709 -91.94439,-9.29436 -19.35681,-4.90088 -29.93524,-8.97338 -63.5757,-24.47544 C 87.542623,84.069694 72.480553,79.15415 38.330955,75.680438 c -3.569456,-0.363088 -5,-0.836448 -5,-1.654496 0,-3.398718 28.298868,-23.248027 45.267348,-31.751293 7.02281,-3.519273 24.417087,-10.687386 32.289137,-13.306219 30.16691,-10.035777 57.48612,-13.431308 101.24352,-12.583657 31.73081,0.614678 47.84887,2.793204 71.95552,9.725557 13.51956,3.887823 23.82448,7.758595 24.27809,9.119433 0.16624,0.498709 -0.59739,1.975893 -1.69693,3.282633 -2.83609,3.370497 -3.96951,7.456325 -3.57632,12.89214 0.64545,8.923243 7.53253,15.124398 16.79733,15.124398 8.28983,0 14.75858,-4.947746 16.6215,-12.713258 0.68954,-2.874302 1.37206,-4.084819 2.3006,-4.08026 1.91386,0.0094 19.47484,12.098737 28.76438,19.801995 8.80024,7.297507 24.15583,22.831291 24.15583,24.436151 0,2.36294 -8.76207,14.986688 -14.68267,21.153728 -12.3371,12.85061 -24.67632,19.72191 -42.812,23.84057 -4.56207,1.03606 -8.44975,2.03882 -8.63928,2.22836 -0.18955,0.18954 1.09844,2.01195 2.86218,4.04979 1.76374,2.03785 4.87302,6.04017 6.90951,8.89405 4.35585,6.10418 4.44612,6.1225 15.56226,3.15813 21.81803,-5.81827 37.67345,-14.06382 53.86899,-28.01434 3.84147,-3.30896 7.34268,-5.79492 7.78049,-5.52434 1.29831,0.80241 7.52284,13.76406 10.72132,22.32554 3.55896,9.52643 7.48834,24.2537 7.80254,29.24388 l 0.22666,3.6 -39.6,0.4 c -34.67927,0.3503 -39.56038,0.54912 -39.28111,1.6 0.1754,0.66 0.8054,2.98846 1.4,5.17435 0.59461,2.18589 1.08111,5.51589 1.08111,7.4 v 3.42566 h 36.85259 c 23.87355,0 37.39758,0.29166 38.4,0.82814 1.34004,0.71717 1.54741,1.72253 1.54741,7.50205 0,7.28053 -0.88152,9.00862 -4.18961,8.21313 -0.99572,-0.23943 -16.93039,-0.86208 -35.41039,-1.38365 -58.00195,-1.63703 -124.05745,1.12768 -172.47244,7.21874 -60.33297,7.59045 -107.84369,19.12273 -145.127567,35.22681 -13.69265,5.9143 -12.71073,5.64374 -14.99637,4.13208 z m 57.796367,-62.05486 c 0,-0.61127 -10.71165,-16.08833 -11.55172,-16.69086 -0.46656,-0.33463 -2.41304,-0.51463 -4.32553,-0.4 -3.456477,0.20717 -3.512797,0.25978 -9.427757,8.80841 l -5.9505,8.60001 h 15.627747 c 8.59528,0 15.62776,-0.14291 15.62776,-0.31756 z m 154.40001,-3.21117 c 0,-1.9408 0.71535,-5.8108 1.58968,-8.6 0.87432,-2.7892 1.59432,-5.16128 1.6,-5.27128 0.006,-0.11 -29.86968,-0.2 -66.38968,-0.2 -52.6006,0 -66.39458,0.20783 -66.37389,1 0.0144,0.55 0.72261,2.98 1.57388,5.4 0.85128,2.42 1.55952,5.69 1.57388,7.26667 0.0144,1.57667 0.26612,3.10667 0.55946,3.4 0.29333,0.29334 28.73333,0.53334 63.2,0.53334 h 62.66667 z m 56.19952,0.52872 c -1.28421,-1.65 -4.01874,-5.62784 -6.07673,-8.83964 l -3.7418,-5.83964 -4.54181,0.23964 -4.54181,0.23964 -4.44868,6.12595 c -2.44678,3.36927 -5.28321,7.23927 -6.30317,8.6 l -1.85448,2.47406 h 16.92171 16.9217 z m -35.05033,-91.47065 c 15.31522,-3.856428 17.34553,-25.033426 3.09053,-32.235768 -3.25496,-1.644572 -10.58384,-1.67266 -14.4545,-0.05539 -14.38463,6.010282 -13.05241,27.41901 1.99754,32.100338 3.91084,1.21648 5.18971,1.24252 9.36643,0.19082 z m 54.06329,-0.61064 c 4.03982,-2.146758 6.38814,-5.985648 6.38453,-10.43701 -0.006,-6.79472 -4.80824,-11.535608 -11.6948,-11.544232 -12.07157,-0.01512 -15.85394,16.134604 -5.07351,21.662532 4.26612,2.18755 6.72494,2.26303 10.38378,0.31871 z M 230.6794,83.189486 c 2.77527,-2.607232 2.49381,-6.377904 -0.67511,-9.044376 -1.89434,-1.593978 -3.04554,-1.99957 -4.6,-1.62067 -7.53815,1.837422 -6.71717,12.404494 0.96373,12.404494 1.4245,0 3.23911,-0.732112 4.31138,-1.739448 z m -38.40001,-7.2 c 3.29288,-3.093498 2.21378,-8.453663 -2.05809,-10.223131 -4.90344,-2.031071 -10.08709,3.142011 -8.05774,8.041307 0.53747,1.297552 1.56,2.699712 2.27231,3.115904 2.25658,1.318512 5.90871,0.883584 7.84352,-0.93408 z M 265.99348,60.71487 c 4.90851,-3.2483 7.75271,-8.655086 7.67282,-14.585937 -0.0731,-5.429791 -1.36822,-8.419565 -5.26709,-12.159455 -6.91829,-6.636196 -16.38664,-6.682739 -23.51117,-0.115571 -3.94078,3.632484 -5.32381,6.978709 -5.27893,12.772348 0.0554,7.154413 4.75633,13.919483 11.06983,15.930586 1.23861,0.394546 4.46005,0.625284 7.15876,0.512749 3.75987,-0.156785 5.66615,-0.707161 8.15578,-2.35472 z m -57.95576,-0.895425 c 7.43995,-3.108606 8.76597,-13.275664 2.45424,-18.817434 -2.40852,-2.114704 -3.44621,-2.473078 -7.161,-2.473078 -3.70209,0 -4.75517,0.360715 -7.12333,2.439988 -10.06329,8.835689 -0.53572,24.01729 11.83009,18.850524 z M 172.659,58.007728 c 2.00173,-1.803514 2.45576,-4.802807 1.11851,-7.388753 -2.91854,-5.643842 -11.64656,-3.623061 -11.64656,2.696506 0,5.709444 6.28838,8.512111 10.52805,4.692247 z"
       id="path4542"
       inkscape:connector-curvature="0" />
    <path
       style="fill:#e8b496;stroke-width:0.80000001"
       d="m 10.530954,368.37581 c -8.8491623,-1.19756 -18.5482533,-6.25442 -26.122053,-13.61938 -6.336597,-6.16188 -9.84896,-11.6665 -12.766116,-20.00725 -1.936236,-5.53611 -2.959648,-21.00127 -1.616016,-24.42024 l 0.864583,-2.2 H 199.95115 c 177.09096,0 229.27761,0.2178 230.01981,0.96 1.40678,1.40677 1.23543,16.82029 -0.25202,22.67192 -4.04738,15.92227 -16.79268,29.63021 -32.59145,35.05305 l -4.99653,1.71503 -189.6,0.0858 C 98.250953,368.66197 11.850954,368.55445 10.530954,368.37581 Z M -6.8061493,293.41133 C -18.10259,289.42396 -26.06172,281.09719 -29.390536,269.78374 c -2.883702,-9.80068 -1.031963,-23.97043 4.189005,-32.0548 2.770381,-4.28979 6.689725,-6.76707 8.067471,-6.76707 3.144948,0 31.570029,12.77139 43.265014,20.62239 8.336417,5.59634 23.085505,18.06152 28.308299,23.92475 l 4.36357,4.89864 10.49345,-4.57292 c 54.453737,-23.73025 142.209907,-39.57828 250.834687,-45.29866 20.77048,-1.09381 67.78513,-2.38991 87.03427,-2.39936 l 15.83427,-0.008 3.98508,3.72758 c 2.5377,2.37371 5.04654,5.87529 6.9076,9.64089 2.69908,5.46122 2.94988,6.57748 3.28044,14.60041 0.30028,7.28804 0.0842,9.56837 -1.34152,14.15911 -3.36511,10.8352 -12.13076,19.81861 -22.73494,23.29971 l -5.3988,1.77253 -204.5832,-0.0169 -204.5832063,-0.0169 z m 60.1371023,-40.5727 c -8.24271,-6.8322 -27.082603,-19.56468 -37.999999,-25.68137 -10.3000983,-5.77084 -24.4693673,-11.3302 -33.6,-13.18306 l -7.200001,-1.46108 -0.231146,-6.9921 -0.231146,-6.99208 h 41.165717 c 22.641145,0 41.735165,-0.21852 42.431145,-0.4856 0.8854,-0.33976 1.26543,-1.5301 1.26543,-3.96361 0,-1.91291 0.87971,-5.9016 1.95491,-8.86375 1.07521,-2.96215 1.77396,-5.67853 1.5528,-6.03639 -0.22118,-0.35786 -20.180892,-0.65066 -44.354922,-0.65066 h -43.952788 l 0.0073,-1.8 c 0.01154,-2.86432 3.619132,-18.00275 5.957686,-25 6.224791,-18.62535 16.5251787,-37.13784 29.8432497,-53.636108 3.5358243,-4.38014 7.4712183,-8.95012 8.7453223,-10.155512 l 2.316553,-2.191616 6.364972,1.121264 c 21.856364,3.85024 36.397417,9.497064 88.764974,34.470722 70.77245,33.75079 95.04605,40.57626 148.42338,41.73504 l 22.02339,0.4781 4.24738,-6.14405 c 2.33606,-3.37923 5.67322,-7.79148 7.41591,-9.80499 1.74268,-2.01352 3.04472,-3.78474 2.8934,-3.93605 -0.15131,-0.15131 -9.43899,-0.44272 -20.63928,-0.64759 -36.31494,-0.66424 -63.77583,-5.08918 -92.36418,-14.88322 -12.46063,-4.26887 -14.46267,-5.11653 -41.8492,-17.71878 C 89.202473,84.150398 70.917503,77.977006 42.705564,75.446622 38.401572,75.06059 34.650155,74.514766 34.369075,74.233686 33.513931,73.378542 37.301331,69.897852 46.421628,63.157168 78.677433,39.317348 115.08573,24.940266 158.53099,18.886883 c 11.83492,-1.649002 56.78572,-2.432346 73.20671,-1.27575 21.79022,1.53477 42.62967,5.69215 63.19329,12.606786 13.10605,4.406984 13.78161,4.913466 10.9857,8.236216 -6.5422,7.774956 -4.47147,20.421787 4.29348,26.222153 3.86003,2.554447 10.88352,3.383093 15.56873,1.836833 4.88431,-1.611966 9.76732,-6.702351 11.21879,-11.695232 0.68572,-2.358926 1.61606,-4.288956 2.06736,-4.288956 1.27296,0 13.80424,8.361813 22.64402,15.109792 8.82949,6.740119 29.22189,26.433473 29.22189,28.220167 0,2.18291 -7.93006,13.999718 -13.25375,19.749808 -12.42606,13.42128 -25.3374,20.59086 -44.94625,24.95833 -4.51,1.00451 -8.2,2.05839 -8.2,2.34196 0,0.28357 1.63699,2.43336 3.63776,4.77732 2.00077,2.34396 5.27237,6.55245 7.27022,9.35218 2.21983,3.11082 4.20807,5.09044 5.11259,5.09044 5.1757,0 24.71017,-6.05179 34.95667,-10.8296 11.21553,-5.22965 28.35634,-17.0112 34.14675,-23.47039 0.83819,-0.935 1.82458,-1.70001 2.19197,-1.70001 0.94854,0 7.53988,13.36474 10.82578,21.95056 2.9094,7.60206 6.91829,22.18335 7.87669,28.64944 l 0.56324,3.8 h -38.82541 c -21.35397,0 -39.35891,0.20473 -40.01097,0.45495 -1.02091,0.39176 -0.96308,1.08621 0.41632,5 0.88104,2.49978 1.62316,6.61505 1.64916,9.14505 0.026,2.53001 0.0792,4.68117 0.11825,4.78038 0.039,0.0992 17.17098,0.36921 38.07098,0.6 l 38,0.41963 0.236,6.33053 c 0.1298,3.48179 -0.10452,6.54179 -0.52071,6.8 -0.41619,0.25821 -5.74239,0.23213 -11.836,-0.0579 -63.97697,-3.04554 -141.63056,-0.60516 -196.67929,6.18095 -61.29819,7.55652 -110.12665,19.274 -146.917777,35.25622 -6.44477,2.79963 -12.38477,5.07811 -13.2,5.06328 -0.81523,-0.0149 -4.54223,-2.56336 -8.28223,-5.66336 z M 118.43493,197.8843 c 0.4275,-0.6917 -7.55957,-12.46136 -11.37044,-16.75537 -2.29278,-2.58345 -5.29418,-3.33236 -8.470397,-2.11352 -1.69423,0.65013 -13.42721,17.80085 -12.83417,18.76039 0.56888,0.92047 32.108457,1.0252 32.675007,0.1085 z m 212.13263,-0.21459 c 0.29206,-0.47257 -0.17675,-1.64257 -1.0418,-2.6 -0.86506,-0.95742 -3.46813,-4.62078 -5.78461,-8.14078 -5.07428,-7.71061 -5.87016,-8.4 -9.69766,-8.4 -4.43904,0 -5.14972,0.48304 -9.24068,6.28076 -2.06433,2.92559 -5.1209,6.97834 -6.79238,9.00612 -1.67147,2.02779 -2.80815,3.91779 -2.52593,4.20001 0.92092,0.92091 34.50476,0.5896 35.08306,-0.34611 z m -58.0366,-4.73219 c 0,-2.82435 0.6447,-6.48815 1.57037,-8.92432 0.86371,-2.2731 1.38247,-4.43696 1.15279,-4.80859 -0.61948,-1.00234 -132.9093,-0.86892 -133.52956,0.13467 -0.27545,0.44569 0.24103,2.79313 1.14774,5.21653 0.90671,2.42339 1.8804,6.37873 2.16375,8.78964 l 0.51519,4.38349 h 63.48986 63.48986 z m 19.87182,-89.65584 c 6.78623,-1.45538 12.69762,-7.857118 14.02554,-15.188946 0.31047,-1.714192 0.0232,-4.48788 -0.72618,-7.01128 -5.84959,-19.697705 -35.02454,-15.82642 -35.02454,4.64748 0,9.389858 6.90795,16.739366 17.21398,18.314326 0.30834,0.0471 2.33838,-0.29559 4.5112,-0.76158 z m 54.51183,-0.95275 c 4.57415,-2.337268 6.56131,-5.170328 6.97236,-9.940404 0.64796,-7.519208 -4.47799,-13.062168 -12.07432,-13.0566 -5.47556,0.004 -8.91689,2.16892 -11.02565,6.936128 -2.9421,6.651088 -0.44379,13.380678 6.06481,16.336536 4.26967,1.93905 5.81117,1.89681 10.0628,-0.27566 z M 230.77042,84.10679 c 5.01081,-4.668272 1.96963,-12.341018 -4.81502,-12.148115 -5.88804,0.16741 -8.71979,8.106451 -4.25984,11.942747 2.67703,2.302672 6.72533,2.394288 9.07486,0.205368 z m -38.4,-7.2 c 3.42022,-3.186416 3.27461,-8.548913 -0.29567,-10.888243 -7.1324,-4.673332 -14.79541,4.531497 -8.78016,10.546747 2.47024,2.470248 6.62316,2.626504 9.07583,0.341496 z m 69.84116,-13.688339 c 13.93718,-4.666345 16.60118,-23.224428 4.52818,-31.544346 -8.52485,-5.874767 -19.56196,-3.729283 -25.38901,4.935326 -2.88414,4.288613 -3.24059,12.190771 -0.7855,17.413752 3.77952,8.040589 13.17478,12.031652 21.64633,9.195268 z m -52.18923,-3.685173 c 8.51644,-6.347486 5.82934,-19.916946 -4.26856,-21.55561 -6.64243,-1.077917 -12.37517,2.432317 -14.03415,8.593283 -1.55196,5.763534 1.56009,11.936507 7.21131,14.304163 2.85582,1.196482 8.62163,0.498936 11.0914,-1.341836 z M 173.19623,58.24775 c 4.18428,-4.518614 1.07097,-11.718817 -5.06711,-11.718817 -7.36021,0 -9.44901,10.28989 -2.66762,13.141253 3.02896,1.273581 5.69163,0.783909 7.73473,-1.422436 z"
       id="path4540"
       inkscape:connector-curvature="0"
       sodipodi:nodetypes="cssscsccscsccscssscsscccsscccccccsscccscsccsccssccssscsccsssssssssssscssscssscsssssccscsscscsscssccccccccccssccccsssccccccscscsccsccccssscssccsssssssssssscss" />
    <path
       style="fill:#eb9f4c;stroke-width:0.80000001"
       d="m 12.930954,368.10837 c -11.2662273,-1.24685 -20.5833273,-5.8043 -28.948455,-14.16013 -6.267799,-6.26083 -11.161408,-14.97458 -13.05664,-23.24917 -1.026138,-4.48012 -1.337278,-19.44534 -0.434649,-20.90583 0.380598,-0.61581 66.422337,-0.8643 229.71206,-0.8643 217.51233,0 229.20717,0.0713 229.75279,1.4 0.3162,0.77 0.5363,5.18 0.48912,9.8 -0.0689,6.74041 -0.49996,9.66445 -2.18208,14.8 -5.02116,15.32964 -17.50603,27.21334 -33.73214,32.10786 -4.56725,1.37768 -13.79967,1.45379 -190.4,1.5696 -102.08001,0.067 -188.120006,-0.15716 -191.200006,-0.49803 z M -0.04833335,294.47824 C -11.010465,293.05207 -21.580145,285.40687 -26.522715,275.32894 c -4.823229,-9.8346 -4.900888,-23.26638 -0.192781,-33.34369 2.458545,-5.26231 7.908435,-11.08516 9.833051,-11.08516 1.618031,0 18.4319437,6.72387 27.259925,11.74092 16.798615,9.54685 34.976955,23.4508 43.957723,33.62166 l 4.29744,4.86692 11.14916,-4.84208 C 123.92615,252.77262 209.23701,237.2791 317.33096,231.32948 c 21.96785,-1.20914 64.16055,-2.37975 86.17216,-2.39081 l 19.37217,-0.01 2.87478,2.52409 c 4.11827,3.6159 7.2152,8.44143 9.20455,14.34224 1.46804,4.35452 1.68864,6.53266 1.45352,14.35143 -0.25733,8.55767 -0.46923,9.6078 -2.95905,14.66448 -5.3258,10.81637 -15.56354,18.16291 -27.46431,19.70824 -7.2031,0.93532 -398.8325933,0.89561 -406.03311335,-0.0412 z M 53.593303,252.22234 C 25.466307,229.97222 -0.75361335,216.23542 -22.100719,212.56571 l -3.031672,-0.52116 0.231672,-6.55781 0.231672,-6.5578 41.557288,-0.20728 c 32.025746,-0.15975 41.701892,-0.43498 42.187752,-1.2 0.34675,-0.546 0.64773,-2.43272 0.66883,-4.19273 0.0211,-1.76 0.76331,-5.18 1.64934,-7.6 0.88604,-2.42 1.68429,-4.94 1.77389,-5.6 0.14255,-1.05008 -5.38426,-1.24997 -44.237099,-1.6 l -44.400001,-0.4 0.222992,-2.4 c 0.436449,-4.69736 5.130164,-22.26435 7.875109,-29.47386 4.135336,-10.86133 9.9271477,-22.23655 16.3109037,-32.0349 5.85297,-8.98367 15.6098793,-21.555404 19.8555043,-25.583748 l 2.416169,-2.292512 5.459662,0.942056 c 22.252182,3.839608 37.47693,9.816486 95.859657,37.632304 52.53836,25.03133 78.41845,33.56876 112.80001,37.21093 12.42036,1.31573 46.99342,2.52621 50.07343,1.75318 1.29381,-0.32473 3.68094,-2.92606 6.97534,-7.60127 2.75462,-3.90918 6.07553,-8.12998 7.37981,-9.37956 4.37427,-4.19082 4.05165,-4.27624 -16.22858,-4.29718 -26.39824,-0.0273 -49.32057,-2.62304 -72.00574,-8.15416 -21.08127,-5.14004 -32.77003,-9.56768 -67.62438,-25.61577 C 90.403583,84.202542 68.901033,77.040798 41.930955,74.871846 35.120979,74.324182 33.801387,73.644638 35.999043,71.817128 50.000331,60.174038 70.433863,47.25498 86.130953,40.12132 119.70488,24.863406 148.183,18.591074 189.73095,17.303327 c 32.65529,-1.012126 62.85386,1.740547 86.80001,7.912034 11.16657,2.87789 28.47599,8.669563 29.76605,9.959623 0.44612,0.446121 -0.0701,1.920304 -1.31444,3.754016 -5.32195,7.842323 -4.54106,16.987412 2.00992,23.538395 3.43342,3.433414 6.57212,4.918691 11.46035,5.4232 8.11171,0.837204 17.01869,-5.245748 18.95793,-12.947181 0.50057,-1.987964 1.32779,-3.614481 1.83826,-3.614481 1.40118,0 14.30334,8.585966 22.88193,15.227164 9.45141,7.316901 27.09021,24.456869 27.71001,26.926355 0.6639,2.64517 -5.89012,12.796498 -13.20507,20.452978 -12.56905,13.15587 -24.73562,19.85114 -43.97649,24.20026 -4.54934,1.02832 -8.47152,2.06964 -8.71593,2.31406 -0.24443,0.24442 0.52037,1.62222 1.69954,3.06179 1.17917,1.43957 4.66906,5.94739 7.75531,10.01739 3.08624,4.07 6.1584,7.4 6.82702,7.4 0.66861,0 4.75221,-0.89647 9.07467,-1.99216 22.23562,-5.63644 40.00655,-14.65686 55.85408,-28.35121 3.6003,-3.11115 6.758,-5.65663 7.01709,-5.65663 0.91124,0 8.27617,16.5747 11.43301,25.72988 3.7406,10.84816 7.0099,24.65719 6.2849,26.54651 -0.46301,1.20658 -3.97614,1.32361 -39.73304,1.32361 -32.73852,0 -39.2251,0.18181 -39.2251,1.09942 0,0.60468 0.56969,2.67468 1.26599,4.6 1.02297,2.8286 1.66711,7.44426 1.9109,13.69275 0.0127,0.32569 17.03311,0.68569 37.82311,0.8 l 37.8,0.20784 v 6.4 6.4 l -2.4,-0.0833 c -65.03086,-2.258 -106.20315,-2.00778 -150.48426,0.91455 -85.62867,5.65107 -153.09754,19.11511 -202.315747,40.37401 -5.28,2.2806 -10.38194,4.45282 -11.33765,4.82716 -1.44861,0.56739 -3.04551,-0.35398 -9.6,-5.53898 z m 65.695787,-54.42567 c 0.24891,-0.40274 -0.39102,-1.75274 -1.42205,-3 -1.03103,-1.24726 -3.79444,-5.14774 -6.14089,-8.66774 -2.34646,-3.52 -4.65529,-6.66448 -5.13074,-6.98775 -0.47545,-0.32326 -2.73716,-0.59326 -5.02603,-0.6 -4.076117,-0.012 -4.214197,0.0658 -6.725587,3.78775 -1.41021,2.09 -4.30751,6.18404 -6.43843,9.09785 -2.13093,2.91383 -3.87441,5.70383 -3.87441,6.2 0,1.12044 34.067757,1.28695 34.758137,0.16989 z m 154.15573,-6.06774 c 0.28262,-3.52 1.07835,-7.70427 1.76828,-9.29838 0.68993,-1.59412 1.02869,-3.12412 0.7528,-3.4 -0.27589,-0.27589 -30.90358,-0.50162 -68.06154,-0.50162 h -67.55993 l 0.4277,1.8 c 0.23523,0.99 1.00981,3.37174 1.72128,5.29276 0.71146,1.921 1.49155,5.161 1.73351,7.2 0.24197,2.03898 0.57889,4.15941 0.74872,4.71204 0.24512,0.79766 13.46562,0.96257 64.13204,0.8 l 63.82328,-0.20479 z m 58.28614,5.64722 c 0,-0.63403 -0.3706,-1.38183 -0.82355,-1.66177 -0.45296,-0.27994 -3.341,-4.26119 -6.41789,-8.84721 l -5.59435,-8.33824 h -5.19859 -5.1986 l -2.58351,3.7374 c -1.42093,2.05558 -4.65351,6.37012 -7.18351,9.58789 -2.53,3.21776 -4.6,6.03594 -4.6,6.2626 0,0.22666 8.46,0.41212 18.8,0.41212 15.83557,0 18.8,-0.18178 18.8,-1.15279 z m -36.51612,-94.34714 c 9.62117,-4.019978 14.23449,-15.267636 10.04889,-24.500076 -3.33372,-7.353426 -8.61084,-10.740819 -16.73277,-10.740819 -8.12194,0 -13.39905,3.387393 -16.73278,10.740819 -4.14874,9.151144 0.35878,20.323478 9.8706,24.465256 3.22336,1.40356 10.2271,1.42157 13.54606,0.0348 z m 54.09027,-1.28167 c 5.55976,-3.958898 6.89493,-11.954726 2.95868,-17.718486 -5.29387,-7.751696 -17.7513,-6.977392 -21.70239,1.34892 -1.67118,3.521752 -1.57432,9.813758 0.19231,12.492458 1.46292,2.218178 4.49054,4.850798 6.57725,5.719128 2.58185,1.07436 9.33807,0.035 11.97415,-1.84202 z M 231.07833,84.230294 c 3.46155,-3.092888 3.5607,-7.04848 0.26295,-10.490584 -3.13072,-3.267775 -6.8497,-3.294478 -10.07186,-0.07232 -3.72602,3.726016 -3.03218,9.164928 1.48165,11.614496 3.26933,1.7742 5.47662,1.495456 8.32726,-1.0516 z m -38.7037,-6.892592 c 3.94663,-3.320864 3.80937,-9.279541 -0.27539,-11.955981 -6.46033,-4.232973 -14.21054,3.077722 -10.45188,9.859157 2.34207,4.225608 7.09359,5.154376 10.72727,2.096824 z m 68.07644,-13.266371 c 13.88241,-2.977246 19.20769,-20.021852 9.43934,-30.212501 -3.86453,-4.031596 -7.77371,-5.732636 -13.12758,-5.712328 -5.82259,0.02209 -10.13429,1.936794 -13.98883,6.212051 -5.2155,5.784755 -5.96785,14.404099 -1.86794,21.400065 2.45295,4.185655 5.88689,6.759955 10.77593,8.078341 4.64162,1.251667 4.09386,1.237027 8.76908,0.234372 z m -50.31971,-4.142397 c 7.46039,-5.09238 7.31064,-15.262065 -0.3085,-20.95057 -3.07706,-2.297358 -9.91721,-2.284696 -13.03324,0.02413 -7.80741,5.7849 -7.84052,16.390567 -0.066,21.130764 3.68892,2.249162 9.95319,2.153699 13.40772,-0.204322 z m -36.73887,-1.338462 c 3.85302,-3.853014 2.78602,-9.409295 -2.30846,-12.021165 -5.276,-2.704929 -11.86109,3.55647 -9.73236,9.253961 2.02203,5.411935 8.01808,6.78994 12.04082,2.767204 z"
       id="path4538"
       inkscape:connector-curvature="0"
       sodipodi:nodetypes="ssscsccccsscssssscsscccccsccccccccscsccscssssccsscsscssssssscccscsscsccscsscsscssccsccccssccccsccsccscsccscccccscsscscccccsssccssccccsscccccsscccsscsssscsscsscccsscs" />
    <path
       style="fill:#e16512;stroke-width:0.80000001"
       d="m 13.134683,367.29849 c -19.7678163,-2.33209 -36.019405,-16.42301 -41.023709,-35.56955 -1.275509,-4.88012 -1.857557,-19.45651 -0.842498,-21.09891 0.41082,-0.66472 60.549404,-0.90109 229.260674,-0.90109 h 228.70377 l 0.55684,3.71324 c 1.39309,9.28979 -1.93493,23.92151 -7.29196,32.05932 -6.30757,9.58177 -16.31339,17.06338 -27.50366,20.5652 -5.24543,1.64148 -5.88911,1.6474 -190.86318,1.75772 -102.08001,0.0609 -188.028328,-0.17578 -190.996277,-0.52593 z M -2.6663473,293.9385 c -4.39967,-0.82066 -12.2166027,-5.12128 -16.2609297,-8.94623 -7.415102,-7.0129 -10.931037,-15.53904 -10.912718,-26.46333 0.01738,-10.36709 2.809391,-18.10552 9.119817,-25.27683 l 3.467238,-2.51096 3.436704,0.0986 c 6.7711857,2.67688 28.34582,14.23079 36.324798,19.45311 10.39683,6.80482 22.634401,16.89076 29.787401,24.55013 3.12599,3.34728 6.11461,6.08596 6.64138,6.08596 0.52676,0 5.04901,-1.81112 10.04944,-4.02471 40.886237,-18.09957 105.592487,-32.45877 179.944177,-39.93209 42.75789,-4.29774 74.99784,-6.11842 130.11681,-7.34807 48.13369,-1.07381 44.68006,-1.49446 50.48889,6.14957 4.28681,5.64116 6.25676,11.46538 6.77454,20.02929 0.70871,11.72157 -2.06278,20.04792 -9.22002,27.69959 -4.41266,4.71748 -8.8902,7.47443 -15.46014,9.51922 -4.69378,1.46087 -11.105,1.50385 -208.57136,1.39825 C 91.008883,294.3601 -1.5678323,294.14341 -2.6663473,293.93851 Z M 61.766713,203.9247 c -2.77905,-2.77906 -2.79175,-2.8245 -2.31702,-8.29507 0.26253,-3.02538 1.17834,-7.4807 2.03513,-9.9007 3.0108,-8.50403 7.9982,-7.57077 -41.720839,-7.80696 -23.9618353,-0.11384 -43.843061,-0.48307 -44.180503,-0.82051 -0.863713,-0.86371 2.721608,-16.18477 6.176453,-26.39369 6.188935,-18.28802 19.4324677,-41.13513 32.564567,-56.178838 l 5.935923,-6.799998 4.335266,0.155088 c 5.811132,0.20788 20.402641,4.01348 33.135263,8.64199 12.80559,4.655028 25.02341,10.111458 59.999997,26.795738 68.4856,32.6685 92.66585,39.46524 146.86804,41.2826 9.05741,0.30369 17.77209,0.30752 19.36594,0.008 2.49283,-0.46766 3.54227,-1.45801 7.50765,-7.0849 2.53536,-3.59768 6.15883,-8.28544 8.05217,-10.41723 1.89334,-2.13179 3.24535,-4.19485 3.0045,-4.58457 -0.24087,-0.38973 -8.43902,-0.71214 -18.21812,-0.71647 -34.71903,-0.0154 -62.92349,-4.21564 -92.23838,-13.73631 -12.97209,-4.21246 -20.31763,-7.29322 -49.9418,-20.94525 C 92.866073,84.424334 73.743643,77.84055 48.201739,74.788126 41.782811,74.021022 36.530955,73.147454 36.530955,72.846864 c 0,-0.943746 15.60684,-12.557899 24.176058,-17.991106 23.4344,-14.85831 54.296677,-26.958059 82.223937,-32.236407 21.35102,-4.035416 52.9007,-5.643546 81.20001,-4.138875 19.53452,1.038649 33.87673,3.027128 49.72342,6.893916 9.88738,2.412643 28.39094,8.243629 31.26678,9.853033 0.73189,0.40959 0.46789,1.327594 -1.00532,3.495606 -3.06064,4.504144 -4.06308,10.006802 -2.8282,15.524828 0.84656,3.782824 1.72889,5.271 5.15866,8.700763 3.27783,3.277833 5.01873,4.348848 8.37933,5.155045 2.33306,0.55969 5.60016,0.835438 7.26025,0.612773 7.0185,-0.941378 13.4981,-6.106488 15.80351,-12.597519 0.77942,-2.194493 1.6317,-3.989988 1.89397,-3.989988 0.89483,0 19.53529,12.977932 23.9476,16.672897 8.81615,7.382832 17.62724,15.634296 21.72304,20.343344 l 4.19114,4.818658 -2.70498,5.06275 c -5.57428,10.433028 -18.65767,23.245578 -30.4092,29.779708 -5.99237,3.33189 -14.03407,6.2727 -22.29843,8.15441 -3.79587,0.86428 -7.71157,1.75756 -8.70157,1.98507 -2.61473,0.60088 -2.2448,1.9577 1.83776,6.74054 2.00077,2.34396 5.27727,6.55931 7.28111,9.36745 2.00385,2.80813 4.27099,5.44161 5.03811,5.85215 0.95384,0.51048 3.89652,0.12696 9.30867,-1.21319 22.45772,-5.56099 40.2622,-14.57154 56.47365,-28.58038 3.5142,-3.03673 6.49828,-5.40029 6.63129,-5.25237 1.09158,1.21396 6.85775,13.86897 9.39621,20.62184 3.50104,9.31356 7.8332,25.29739 7.8332,28.90119 v 2.34593 h -39.15279 c -21.53403,0 -39.3407,0.30406 -39.57038,0.67568 -0.22967,0.37163 0.34215,2.62163 1.27073,5 1.74544,4.47063 2.34291,12.75329 1.21979,16.90977 -0.62979,2.33076 -4.11141,4.61456 -7.03481,4.61456 -6.98304,0 -12.61517,-4.70887 -21.53677,-18.00631 -3.01911,-4.49991 -6.08269,-8.40936 -6.80796,-8.68767 -1.99416,-0.76523 -6.7054,-0.60643 -8.36541,0.28198 -0.80983,0.43341 -3.43528,3.58341 -5.83435,7 -5.98851,8.52843 -11.42763,14.3956 -15.06613,16.25183 -4.16739,2.12604 -10.24488,2.08033 -13.01404,-0.0979 -1.94029,-1.52623 -2.10788,-2.13208 -2.10788,-7.61998 0,-3.88412 0.55013,-7.52716 1.57852,-10.45309 0.86818,-2.47015 1.38693,-4.80115 1.15278,-5.18002 -0.23415,-0.37886 -30.86534,-0.68885 -68.06932,-0.68885 h -67.64359 l 0.41481,2.2 c 0.22815,1.21 1.03155,3.82 1.78535,5.8 2.04992,5.38454 2.4758,13.52349 0.87009,16.62858 -1.67045,3.2303 -3.49245,4.17143 -8.07578,4.17143 -5.49982,0 -12.33054,-3.94679 -15.84016,-9.15243 -13.48626,-20.00346 -13.17724,-19.64758 -17.06018,-19.64758 -4.122337,0 -4.886377,0.60502 -9.968037,7.89324 -2.64863,3.79872 -6.0923,8.70676 -7.65259,10.90677 -4.27315,6.02509 -9.61239,9.41981 -15.48347,9.84449 -4.5874,0.33183 -4.88994,0.23399 -7.57267,-2.44873 z M 295.35634,103.76988 c 4.7666,-1.99161 8.25567,-5.238338 10.45072,-9.724878 3.61384,-7.386428 1.87136,-16.382268 -4.34209,-22.416692 -2.80009,-2.71941 -8.83661,-5.099376 -12.93401,-5.099376 -4.14365,0 -10.39545,2.448778 -13.06356,5.116893 -9.72163,9.721627 -7.48831,25.277075 4.48576,31.244003 4.73216,2.35813 11.00752,2.71668 15.40318,0.88005 z m 52.31905,-0.0122 c 5.63708,-2.91504 9.00844,-10.093638 7.34611,-15.641994 -2.07953,-6.94088 -8.04061,-10.961136 -15.0768,-10.168056 -6.77238,0.763368 -11.41374,6.10644 -11.41374,13.139376 0,6.177696 2.93284,10.922484 8.00041,12.943204 2.98612,1.19073 8.57891,1.05397 11.14402,-0.2725 z M 230.23371,86.075774 c 3.34814,-1.731392 5.06982,-5.993928 3.87873,-9.60296 -3.04776,-9.234779 -15.98148,-7.042823 -15.98148,2.708504 0,2.630944 2.57299,6.338296 5.11049,7.36356 2.55162,1.030968 4.32103,0.912272 6.99226,-0.46908 z m -38.4,-7.2 c 3.34814,-1.731392 5.06982,-5.993924 3.87873,-9.602958 -2.27733,-6.900369 -11.03679,-8.06774 -14.64927,-1.952303 -1.81638,3.074884 -1.67257,6.559933 0.37828,9.167165 2.88025,3.66164 6.37604,4.46496 10.39226,2.388096 z M 265.445,63.251377 c 3.73318,-1.879734 8.46621,-7.403969 9.48468,-11.070186 2.69696,-9.708404 -2.07369,-20.044221 -10.97303,-23.773513 -1.41587,-0.593299 -4.85179,-1.078745 -7.63539,-1.078745 -6.6794,0 -12.58466,3.338657 -16.16158,9.137264 -2.11528,3.429126 -2.42566,4.668091 -2.40496,9.6 0.0434,10.359159 5.32026,16.676401 15.97624,19.126335 2.64796,0.608799 8.61292,-0.379653 11.71404,-1.941131 z m -55.30591,-2.522443 c 6.19751,-4.217988 7.98358,-10.909745 4.64416,-17.400001 -2.06513,-4.013648 -7.15333,-7.213286 -11.42181,-7.18243 -3.62737,0.02622 -8.7499,2.660524 -10.81613,5.562278 -1.94661,2.733753 -2.94207,8.208675 -2.10148,11.557871 0.61883,2.46559 4.97746,7.577469 7.24339,8.495157 3.39461,1.374801 9.68035,0.853402 12.45187,-1.032875 z m -37.59974,-0.332217 c 4.35978,-2.575386 5.27512,-8.219658 1.96998,-12.147589 -2.55825,-3.040306 -5.74334,-3.774133 -9.5243,-2.194348 -5.54281,2.315937 -6.56921,9.752154 -1.88956,13.689819 2.75806,2.320756 6.215,2.559464 9.44388,0.652118 z"
       id="path4536"
       inkscape:connector-curvature="0"
       sodipodi:nodetypes="csssccssscccssccssscssscccsccccscsscsssscsscscsssssssccsccscssscscscscccscsscscccssccsccsccsccccsssscscccsscsccccsscccssscccsssccccsccsccscscccssssss" />
    <path
       style="fill:#c6471b;stroke-width:0.80000001"
       d="m -2.6663473,293.9385 c -4.39967,-0.82066 -12.2166027,-5.12128 -16.2609297,-8.94623 -7.415102,-7.0129 -10.931037,-15.53904 -10.912718,-26.46333 0.01738,-10.36709 2.809391,-18.10552 9.119817,-25.27683 l 3.467238,-2.51096 3.436704,0.0986 c 6.7711857,2.67688 28.34582,14.23079 36.324798,19.45311 10.39683,6.80482 22.634401,16.89076 29.787401,24.55013 3.12599,3.34728 6.11461,6.08596 6.64138,6.08596 0.52676,0 5.04901,-1.81112 10.04944,-4.02471 40.886237,-18.09957 105.592487,-32.45877 179.944177,-39.93209 42.75789,-4.29774 74.99784,-6.11842 130.11681,-7.34807 48.13369,-1.07381 44.68006,-1.49446 50.48889,6.14957 4.28681,5.64116 6.25676,11.46538 6.77454,20.02929 0.70871,11.72157 -2.06278,20.04792 -9.22002,27.69959 -4.41266,4.71748 -8.8902,7.47443 -15.46014,9.51922 -4.69378,1.46087 -11.105,1.50385 -208.57136,1.39825 C 91.008883,294.3601 -1.5678323,294.14341 -2.6663473,293.93851 Z M 63.104383,205.28038 c -3.34237,-2.3411 -4.10308,-5.00444 -3.34925,-11.72629 0.37753,-3.36638 1.46138,-7.92218 2.40857,-10.12399 0.9472,-2.20181 1.48607,-4.38531 1.1975,-4.85222 -0.35954,-0.58175 -14.217416,-0.84895 -44.030249,-0.84895 -23.9280653,0 -43.661918,-0.27 -43.853006,-0.6 -0.566113,-0.97764 3.373751,-17.62461 6.011457,-25.4 7.095698,-20.91657 19.26454465,-41.65113 34.889155,-59.447796 l 4.489498,-5.113608 4.031448,0.530672 c 17.459465,2.298264 42.220827,11.442904 79.288604,29.282142 70.38137,33.87176 93.76308,42.03357 131.54285,45.91741 13.81069,1.41977 44.04903,2.50022 48.19667,1.72211 2.54159,-0.47681 3.55443,-1.43172 7.55272,-7.12079 2.53962,-3.61358 5.95793,-8.03193 7.59622,-9.81856 1.63831,-1.78664 3.34161,-4.20288 3.78513,-5.36942 1.21455,-3.1945 7.85797,-7.73828 11.34923,-7.76232 3.09989,-0.0214 9.52003,3.91232 9.52003,5.833 0,0.57353 1.63699,2.96058 3.63776,5.30454 2.00077,2.34396 5.27727,6.55931 7.28111,9.36745 2.00385,2.80813 4.33603,5.47641 5.18264,5.9295 1.69122,0.90511 14.66134,-2.2063 25.62951,-6.14828 14.01598,-5.03737 30.65639,-14.94169 40.94811,-24.37218 l 5.23979,-4.80131 1.2899,1.96864 c 1.94742,2.97213 7.90944,16.86925 10.33867,24.0988 2.52047,7.5011 6.04999,21.61574 6.05148,24.2 l 0.001,1.8 h -39.15279 c -21.53403,0 -39.3407,0.30406 -39.57038,0.67568 -0.22967,0.37163 0.35077,2.62163 1.28987,5 1.23243,3.12129 1.70841,6.08222 1.71089,10.6431 0.003,6.09706 -0.0861,6.39881 -2.5497,8.6 -3.17076,2.83307 -6.29703,2.93682 -11.72789,0.38919 -4.50921,-2.11527 -8.05197,-6.02413 -15.41079,-17.00329 -5.17677,-7.72361 -5.89796,-8.30468 -10.30724,-8.30468 -4.07967,0 -5.27046,0.91876 -10.09392,7.78801 -9.16507,13.05228 -14.88141,17.75544 -21.62778,17.79443 -3.47143,0.0201 -7.33192,-1.71227 -8.06333,-3.61827 -1.06038,-2.76332 -0.45906,-11.71194 1.08158,-16.0953 0.86818,-2.47015 1.38693,-4.80115 1.15278,-5.18002 -0.23412,-0.37886 -30.86531,-0.68885 -68.06929,-0.68885 h -67.64359 l 0.41481,2.2 c 0.22815,1.21 1.03437,3.82 1.79162,5.8 0.75724,1.98 1.55809,6.19935 1.77967,9.37632 0.40145,5.75588 0.39289,5.7863 -2.42081,8.6 -2.32045,2.32045 -3.41283,2.82369 -6.12938,2.82369 -5.70763,0 -12.80879,-4.02114 -16.34796,-9.25728 -9.39369,-13.8978 -12.0809,-17.6849 -13.15732,-18.54273 -0.69016,-0.55 -2.64239,-1 -4.33829,-1 -3.698447,0 -4.696007,0.93644 -11.583507,10.8737 -7.14598,10.31018 -10.29501,13.731 -14.69035,15.95829 -4.48464,2.27254 -9.90309,2.58283 -12.56345,0.71946 z"
       id="path4534"
       inkscape:connector-curvature="0"
       sodipodi:nodetypes="ccssccssscssscccsccsccscssccsssccscsscsssccsccscccccsssccccscccsssscsssc" />
    <path
       style="fill:#613a16;stroke-width:0.80000001"
       d="M -2.4085883,293.69332 C -15.370662,291.1304 -26.656763,279.49695 -29.14996,266.12894 c -1.142453,-6.1256 -0.355294,-15.97412 1.720111,-21.52113 1.785354,-4.77179 7.249455,-12.84187 9.516463,-14.05515 1.152375,-0.61672 3.531388,0.17731 10.7918407,3.60197 24.6624853,11.63297 46.8762443,26.95127 60.2529483,41.54958 2.63314,2.8736 5.32434,5.22473 5.98046,5.22473 0.65612,0 6.01382,-2.10548 11.90601,-4.67884 10.65908,-4.65526 30.263827,-11.4465 46.344077,-16.05395 64.75326,-18.55367 173.74781,-30.42744 279.59908,-30.45926 l 26.43007,-0.008 3.73033,3.8 c 9.62656,9.80638 12.17439,28.60942 5.65226,41.714 -4.53716,9.11629 -14.40946,16.62116 -24.3423,18.50488 -5.08737,0.9648 -405.9537763,0.91162 -410.8399783,-0.0545 z M 64.841453,205.78114 c -6.46752,-2.75197 -6.91031,-11.67841 -1.29231,-26.05221 1.74966,-4.47655 17.45398,-27.97095 23.16452,-34.6552 4.4095,-5.16137 10.79004,-10.35688 13.578717,-11.0568 6.14214,-1.54157 16.34403,8.70524 32.01828,32.15927 10.80066,16.16149 14.51865,28.48911 10.7264,35.56522 -3.6629,6.83473 -12.8016,5.82891 -20.91219,-2.30164 -2.47488,-2.48096 -6.7802,-7.93085 -9.56738,-12.11085 -2.78718,-4.18 -6.36849,-8.93532 -7.95845,-10.56736 l -2.89084,-2.96737 -3.375847,4.16737 c -1.85671,2.29204 -5.63159,7.393 -8.38862,11.33546 -5.74887,8.22068 -10.07683,12.7219 -14.30743,14.88019 -3.61259,1.84301 -8.51952,2.57209 -10.79485,1.60392 z m 274.489507,-3.17757 c -4.17808,-1.94572 -9.4384,-7.55397 -15.45255,-16.47464 -2.66976,-3.96 -6.04511,-8.56908 -7.50078,-10.2424 l -2.64667,-3.0424 -4.17357,5.0424 c -2.29547,2.77332 -6.39888,8.04767 -9.1187,11.72076 -7.73999,10.45283 -15.48187,15.04237 -21.83652,12.94515 -4.05413,-1.33798 -5.27121,-3.48514 -5.27121,-9.29939 0,-9.26868 4.53708,-19.63006 12.40268,-28.32412 1.39325,-1.54 4.45232,-5.5 6.79792,-8.8 5.60708,-7.88856 13.9215,-17.17415 17.18257,-19.1896 4.74884,-2.93493 7.17159,-2.25764 12.92914,3.61438 5.7903,5.90542 13.91249,16.35148 21.44074,27.57522 9.62148,14.34453 12.56096,28.46781 7.06821,33.96056 -2.51133,2.51133 -7.10369,2.71104 -11.82126,0.51408 z"
       id="path4532"
       inkscape:connector-curvature="0" />
    <path
       style="fill:#040202;stroke-width:0.80000001"
       d="m 62.507983,202.35574 c -2.01268,-2.39194 -2.13793,-2.96957 -1.77799,-8.20001 0.56275,-8.17736 3.63593,-14.94122 13.53778,-29.79565 13.13372,-19.70279 22.03625,-29.03115 27.705907,-29.03115 5.38012,0 14.35919,9.46934 27.27187,28.76092 9.37086,14.0001 12.07616,19.29132 13.70717,26.80936 1.80043,8.29901 -1.19406,14.02973 -7.33099,14.02973 -7.17778,0 -13.15933,-4.92205 -22.93858,-18.87554 -6.41331,-9.1508 -9.70004,-13.46877 -10.46156,-13.74392 -0.86904,-0.314 -6.163417,6.21466 -12.063167,14.87545 -8.80396,12.92417 -14.75752,17.68738 -22.15636,17.72644 -2.77746,0.0146 -3.68754,-0.40867 -5.49408,-2.55563 z M 340.012,201.78676 c -4.19047,-1.90275 -9.7413,-7.76081 -15.44008,-16.29465 -5.85307,-8.76487 -9.83319,-14.16318 -10.44239,-14.16318 -0.79824,0 -7.28339,7.86336 -12.59684,15.27391 -7.94508,11.08083 -13.35061,15.1261 -20.21241,15.1261 -2.44011,0 -3.78229,-0.52024 -5.32674,-2.06469 -1.92889,-1.92889 -2.03877,-2.44195 -1.67051,-7.8 0.50207,-7.30502 3.41165,-14.52227 8.60118,-21.33532 2.17847,-2.86 6.18947,-8.26 8.91333,-12 7.55625,-10.37512 12.69337,-16.25189 17.07951,-19.53861 6.18338,-4.63349 8.805,-3.52735 17.86692,7.53861 15.55972,19.00075 25.32133,35.80339 25.7945,44.4 0.35508,6.45119 -0.0314,8.4566 -2.01115,10.43637 -2.3987,2.3987 -5.89351,2.53824 -10.55532,0.42146 z"
       id="path4530"
       inkscape:connector-curvature="0" />
  </g>
</svg>
