<?xml version="1.0" encoding="UTF-8" standalone="no"?>
<!-- Created with Inkscape (http://www.inkscape.org/) -->

<svg
   xmlns:dc="http://purl.org/dc/elements/1.1/"
   xmlns:cc="http://creativecommons.org/ns#"
   xmlns:rdf="http://www.w3.org/1999/02/22-rdf-syntax-ns#"
   xmlns:svg="http://www.w3.org/2000/svg"
   xmlns="http://www.w3.org/2000/svg"
   xmlns:sodipodi="http://sodipodi.sourceforge.net/DTD/sodipodi-0.dtd"
   xmlns:inkscape="http://www.inkscape.org/namespaces/inkscape"
   version="1.1"
   id="svg815"
   width="500"
   height="500"
   viewBox="0 0 500 500"
   sodipodi:docname="mascotte2.svg"
   inkscape:version="0.92.3 (2405546, 2018-03-11)">
  <metadata
     id="metadata821">
    <rdf:RDF>
      <cc:Work
         rdf:about="">
        <dc:format>image/svg+xml</dc:format>
        <dc:type
           rdf:resource="http://purl.org/dc/dcmitype/StillImage" />
        <dc:title></dc:title>
      </cc:Work>
    </rdf:RDF>
  </metadata>
  <defs
     id="defs819" />
  <sodipodi:namedview
     pagecolor="#ffffff"
     bordercolor="#666666"
     borderopacity="1"
     objecttolerance="10"
     gridtolerance="10"
     guidetolerance="10"
     inkscape:pageopacity="0"
     inkscape:pageshadow="2"
     inkscape:window-width="1366"
     inkscape:window-height="715"
     id="namedview817"
     showgrid="false"
     inkscape:zoom="0.71205824"
     inkscape:cx="163.48742"
     inkscape:cy="123.60338"
     inkscape:window-x="-8"
     inkscape:window-y="-8"
     inkscape:window-maximized="1"
     inkscape:current-layer="g825" />
  <g
     id="g825"
     transform="translate(4.2131386,118.71096)">
    <path
       style="fill:#edcaaa;stroke-width:0.80000001"
       d="m 54.49103,305.41543 c -18.434396,-2.72896 -34.535149,-17.06539 -39.990309,-35.60814 -1.812764,-6.1618 -2.1025,-22.65522 -0.433422,-24.6728 1.018098,-1.23067 17.746574,-1.32631 229.999991,-1.31495 142.64563,0.008 229.35424,0.29771 230.10205,0.76978 1.85088,1.16842 2.11001,15.24748 0.42042,22.84188 -3.71092,16.67986 -16.79125,30.88252 -33.62042,36.50514 l -5.6,1.87095 -188.4,0.10594 c -103.62,0.0583 -190.235238,-0.16574 -192.47831,-0.4978 z M 41.369343,232.0407 c -1.1,-0.19178 -4.927313,-1.75239 -8.505138,-3.468 -10.304678,-4.94123 -17.292104,-14.04458 -19.536473,-25.45249 -1.253317,-6.37048 -0.556936,-16.92051 1.468785,-22.25177 2.55539,-6.72524 9.96209,-16.26115 12.630308,-16.26115 0.623923,0 6.266231,2.5451 12.538461,5.65578 24.115572,11.95998 41.700737,24.0371 56.131577,38.55 l 7.127527,7.16805 9.67247,-4.18831 c 48.74189,-21.10588 121.52393,-35.74888 212.47248,-42.74724 40.92941,-3.14946 73.29322,-4.4196 112.88395,-4.43021 l 30.08396,-0.008 4.15934,4.39789 c 6.55035,6.92603 9.65575,15.45798 9.66812,26.56274 0.0188,16.87249 -10.58313,30.83757 -27.14057,35.75016 -3.9506,1.17213 -22.83972,1.27932 -208,1.18027 -112.01014,-0.06 -204.554797,-0.26594 -205.654797,-0.45772 z m 62.203627,-36.8961 c -1.1121,-0.73552 -5.392867,-4.00481 -9.512807,-7.2651 -23.821972,-18.85131 -49.925942,-32.68437 -69.09082,-36.61273 l -7.2,-1.47583 -0.22897,-7.79182 c -0.125933,-4.28551 -0.125933,-7.87501 0,-7.97667 0.125934,-0.10167 22.714301,-0.37167 50.196373,-0.6 l 49.967404,-0.41516 0.49876,-2.4 c 0.68792,-3.31019 2.88994,-7.37262 6.17631,-11.39441 l 2.77371,-3.39442 -54.691787,-0.20558 -54.6918,-0.20558 -0.249037,-1.7496 c -0.435334,-3.05844 5.331795,-24.600489 9.101097,-33.995479 4.377635,-10.91124 9.784579,-21.20252 16.399834,-31.21452 6.682093,-10.11316 18.38092,-24.67993 21.235506,-26.441346 1.581044,-0.975576 19.886952,3.071696 31.1126,6.878728 17.794997,6.034935 24.743067,9.066183 67.305127,29.363388 67.57131,32.22374 92.80533,39.38191 142.8623,40.52593 l 19.76744,0.45177 5.91295,-5.50943 c 3.25213,-3.0302 8.29822,-7.12944 11.21353,-9.10944 2.91531,-1.98 5.30899,-3.78 5.31928,-4 0.0103,-0.22 -9.25114,-0.42937 -20.58096,-0.46527 -28.22851,-0.0894 -51.06907,-2.7796 -74.96249,-8.82909 -19.35681,-4.90089 -29.93524,-8.97339 -63.57571,-24.47544 -57.0498,-26.289442 -72.11187,-31.204986 -106.261467,-34.678699 -3.569456,-0.363087 -5,-0.836451 -5,-1.654493 0,-3.3987187 28.298867,-23.248028 45.267347,-31.751293 2.23705,-1.12103 8.71705,-4.005564 14.4,-6.410075 36.46961,-15.430632 67.36597,-20.482604 119.13265,-19.4798 30.5492,0.591788 46.47607,2.639709 69.34389,8.916431 12.54061,3.442127 26.32708,8.481817 26.83687,9.810308 0.20974,0.546584 -0.52418,2.069961 -1.63095,3.385282 -2.84892,3.385741 -3.98317,7.464549 -3.58945,12.90774 0.64546,8.9232433 7.53253,15.1243973 16.79734,15.1243973 8.28982,0 14.75857,-4.947745 16.62149,-12.713257 0.63787,-2.6589693 1.39878,-4.0867423 2.17794,-4.0867423 1.51577,0 12.75661,7.3027103 22.63943,14.70789926 8.46046,6.33941504 30.40344,27.54453174 30.40344,29.38108374 0,2.506368 -8.59514,14.968468 -14.73405,21.362898 -7.19204,7.49139 -12.92004,11.80976 -21.95821,16.55443 -6.04578,3.17379 -6.11196,3.24294 -6.52414,6.81643 -0.72142,6.2545 -5.22124,12.24186 -15.18957,20.21091 l -2.79403,2.23366 4.8,-0.50524 c 6.62501,-0.69735 24.31275,-5.30463 31.81678,-8.28759 14.32813,-5.69566 25.67527,-12.60286 37.65221,-22.91957 3.84147,-3.30896 7.34268,-5.79491 7.78049,-5.52434 1.29831,0.80241 7.52284,13.76406 10.72132,22.32555 3.55896,9.52642 7.48834,24.253689 7.80254,29.243879 l 0.22666,3.6 -48.97534,0.4 -48.97534,0.4 5.41554,4.90832 c 2.97855,2.69958 6.29683,6.56958 7.37396,8.6 l 1.95844,3.69167 h 40.25396 c 26.2182,0 40.79352,0.28876 41.80137,0.82815 1.34004,0.71717 1.54741,1.72253 1.54741,7.50205 0,7.45987 -0.81288,8.91359 -4.56723,8.16779 -1.22803,-0.24395 -16.63277,-0.85276 -34.23277,-1.35292 -35.02742,-0.99542 -84.05756,-0.1324 -116.90115,2.05767 -84.92007,5.66263 -152.50241,19.21205 -201.49885,40.39802 -13.68633,5.91794 -12.71006,5.64864 -14.99637,4.13655 z m 246.59637,-62.0822 c 0,-0.1897 -2.79,-2.31515 -6.2,-4.72322 -3.41,-2.40808 -8.29095,-6.21287 -10.84655,-8.4551 l -4.64655,-4.07678 h -75.81176 -75.81176 l -6.56872,4.8116 c -3.6128,2.64637 -9.07656,6.47919 -12.14169,8.51736 -3.06513,2.03818 -5.57297,3.83296 -5.57297,3.98841 0,0.15544 44.46,0.28262 98.8,0.28262 54.34,0 98.8,-0.1552 98.8,-0.34489 z M 336.91853,38.936641 c 15.31523,-3.856423 17.34553,-25.033424 3.09054,-32.2357627 -3.25497,-1.644572 -10.58385,-1.67266 -14.45451,-0.05539 -14.38463,6.0102807 -13.0524,27.4190087 1.99755,32.1003327 3.91084,1.21648 5.1897,1.24253 9.36642,0.19083 z m 54.06329,-0.61063 c 4.03982,-2.146761 6.38814,-5.985656 6.38453,-10.437016 -0.006,-6.861696 -4.85856,-11.582557 -11.79886,-11.477637 -12.08816,0.182743 -15.74419,16.070933 -4.96945,21.59594 4.26612,2.187553 6.72494,2.263023 10.38378,0.318713 z M 274.71778,19.667851 c 2.77527,-2.607234 2.49382,-6.377902 -0.6751,-9.044372 -1.89435,-1.5939807 -3.04555,-1.9995737 -4.6,-1.6206737 -7.53816,1.8374247 -6.71718,12.4044937 0.96372,12.4044937 1.42451,0 3.23912,-0.732112 4.31138,-1.739448 z m -38.4,-7.200003 c 3.29287,-3.0934937 2.21378,-8.4536587 -2.0581,-10.2231277 -4.90344,-2.03107004 -10.08708,3.142011 -8.05773,8.0413057 0.53746,1.297554 1.56,2.699711 2.2723,3.115904 2.25659,1.318513 5.90871,0.883583 7.84353,-0.934082 z m 73.71408,-15.2746117 c 4.90851,-3.2483 7.75271,-8.6550863 7.67282,-14.5859363 -0.0731,-5.429791 -1.36821,-8.419565 -5.26708,-12.159455 -6.9183,-6.636196 -16.38664,-6.682738 -23.51118,-0.115571 -3.94078,3.632484 -5.32381,6.978708 -5.27893,12.772347 0.0554,7.1544133 4.75633,13.9194823 11.06983,15.93058626 1.23861,0.394546 4.46005,0.625284 7.15876,0.512748 3.75988,-0.156784 5.66616,-0.70715996 8.15578,-2.35471896 z m -57.95575,-0.895425 c 7.43994,-3.108606 8.76597,-13.2756633 2.45424,-18.8174333 -2.40852,-2.114704 -3.44622,-2.473078 -7.16101,-2.473078 -3.70209,0 -4.75516,0.360714 -7.12332,2.439988 -10.0633,8.835689 -0.53572,24.0172893 11.83009,18.8505233 z m -35.37872,-1.811717 c 2.00173,-1.803514 2.45576,-4.8028063 1.11851,-7.3887533 -2.91854,-5.643841 -11.64656,-3.62306 -11.64656,2.696506 0,5.7094443 6.28838,8.5121113 10.52805,4.6922473 z"
       id="path839"
       inkscape:connector-curvature="0" />
    <path
       style="fill:#e8b497;stroke-width:0.80000001"
       d="m 53.369343,304.59905 c -9.285124,-1.62877 -17.866639,-6.2849 -25.515797,-13.8443 -5.699462,-5.63257 -9.375,-11.52895 -12.172371,-19.52722 -1.936237,-5.5361 -2.959649,-21.00126 -1.616017,-24.42024 l 0.864583,-2.2 H 243.98954 c 177.09095,0 229.2776,0.2178 230.0198,0.96 1.40678,1.40678 1.23543,16.82029 -0.25202,22.67192 -4.04738,15.92227 -16.79268,29.63021 -32.59145,35.05305 l -4.99653,1.71503 -189.6,0.11163 c -104.28,0.0614 -191.219997,-0.17254 -193.199997,-0.51987 z M 38.038441,230.27222 c -11.505932,-3.6797 -20.074788,-12.58061 -23.493138,-24.4035 -2.116494,-7.32022 -1.386409,-20.11051 1.508926,-26.43475 2.727508,-5.95767 8.181416,-13.11244 10.424416,-13.6754 3.11364,-0.78147 28.794718,12.29608 43.400621,22.10086 9.209421,6.18218 17.315861,12.90905 25.777057,21.39025 l 7.486957,7.50468 10.31495,-4.49512 c 45.58671,-19.86611 115.70282,-34.51448 199.11111,-41.59747 41.70198,-3.54132 72.29258,-5.00712 120.49774,-5.7739 l 33.69772,-0.53601 4.12162,3.85529 c 2.67542,2.50254 5.14707,5.93015 7.04414,9.76861 2.69908,5.46122 2.94988,6.57749 3.28044,14.60041 0.30028,7.28804 0.0842,9.56837 -1.34152,14.15912 -3.36511,10.83519 -12.13076,19.81859 -22.73494,23.2997 l -5.3988,1.7723 -204.5832,-0.043 C 51.942351,231.72322 42.361759,231.65486 38.038441,230.27222 Z m 59.330902,-40.97141 c -8.325664,-6.86567 -27.207639,-19.61855 -38,-25.6652 -10.300098,-5.77083 -24.469366,-11.33019 -33.6,-13.18305 l -7.2,-1.46108 -0.231058,-6.98603 -0.231058,-6.98602 49.795322,-0.20607 49.795321,-0.20607 0.62863,-3.026 c 0.84242,-4.05505 2.64378,-7.42856 6.33335,-11.86087 1.68799,-2.02779 2.83816,-3.91779 2.55595,-4.2 -0.28222,-0.28222 -24.93312,-0.51312 -54.779793,-0.51312 H 18.169343 l 0.0073,-1.8 c 0.01156,-2.87083 3.622059,-18.012479 5.961204,-24.999999 6.290981,-18.79248 16.282782,-36.76899 29.792251,-53.600003 3.531675,-4.399999 7.476056,-8.986231 8.765291,-10.191623 l 2.344064,-2.191616 6.364975,1.121264 c 21.856355,3.85024 36.397402,9.497064 88.764962,34.470718 69.58244,33.18329 95.21879,40.50651 146.18403,41.75862 l 18.98403,0.466389 5.93568,-5.638319 c 3.26463,-3.10107 8.67181,-7.48464 12.01597,-9.74126 3.34416,-2.25661 6.08015,-4.36196 6.07996,-4.67855 -1.8e-4,-0.31659 -9.99018,-0.60147 -22.2,-0.63307 -23.8745,-0.0618 -37.1491,-1.18359 -56.99967,-4.81693 -26.70323,-4.88762 -41.71785,-10.08802 -80,-27.70846 C 149.95054,28.312587 132.1367,21.202163 114.51424,16.626569 104.96761,14.14783 90.208713,11.815399 83.941892,11.795049 81.86702,11.788349 79.638828,11.447273 78.990356,11.037185 77.31734,9.9791823 79.788356,7.5228203 90.460033,-0.36446574 122.71584,-24.204285 159.12414,-38.581366 202.56939,-44.634749 c 11.83674,-1.649255 56.78806,-2.432453 73.2,-1.275382 22.06685,1.555752 42.32778,5.598296 63.2,12.609924 13.10516,4.40243 13.78192,4.909593 10.98571,8.232709 -6.5422,7.774955 -4.47148,20.4217863 4.29347,26.2221523 3.86003,2.554446 10.88352,3.383092 15.56873,1.836833 4.88431,-1.611967 9.76732,-6.702352 11.2188,-11.695232 0.68572,-2.3589263 1.61605,-4.2889553 2.06736,-4.2889553 1.26404,0 13.76268,8.3319863 22.6659,15.1097913 8.76011,6.668863 29.2,26.4299917 29.2,28.2303357 0,0.61972 -1.77471,4.010576 -3.94382,7.535239 -7.55024,12.268735 -20.2148,23.870945 -32.66466,29.924635 -5.49494,2.67188 -5.75998,2.92811 -5.79254,5.6 -0.0746,6.12263 -6.49507,14.94355 -15.19076,20.87024 -2.20282,1.50136 -4.00582,3.04124 -4.00668,3.42193 -0.004,1.63843 19.69976,-2.26612 32.39846,-6.42026 9.15282,-2.99418 20.05535,-8.22501 28.17724,-13.51891 7.10837,-4.63329 16.95518,-12.339 19.74675,-15.453 0.83819,-0.935 1.82458,-1.7 2.19197,-1.7 0.94854,0 7.53988,13.36473 10.82578,21.95056 2.9094,7.60205 6.91829,22.183339 7.87669,28.649439 l 0.56324,3.8 h -48.84362 c -26.86399,0 -49.0188,0.28344 -49.23291,0.62988 -0.21411,0.34643 2.10219,2.88812 5.14732,5.64821 3.04513,2.76008 6.50313,6.70663 7.68444,8.77012 1.18132,2.06348 2.29354,3.93178 2.47162,4.15178 0.17808,0.22 18.74401,0.58 41.25762,0.8 l 40.93386,0.4 0.23235,6.6 c 0.22484,6.38647 0.0562,6.89756 -2.23235,6.76659 -0.22,-0.0126 -14.62,-0.46001 -32,-0.99426 -58.02084,-1.78352 -126.02247,0.89613 -174.8,6.88811 -61.21493,7.51984 -110.06446,19.24008 -146.91778,35.24932 -6.44476,2.79963 -12.38476,5.06798 -13.2,5.04077 -0.81522,-0.0272 -4.54222,-2.57287 -8.282217,-5.65701 z m 254.283537,-55.0046 c 0.78487,-0.49735 -0.95837,-2.08512 -6.32448,-5.76043 -4.07439,-2.79061 -9.39096,-6.88613 -11.81459,-9.10116 l -4.4066,-4.02732 h -76.60454 -76.60455 l -1.86439,1.6768 c -1.02541,0.92224 -4.38439,3.41645 -7.46439,5.54271 -13.59314,9.38392 -15.60434,10.92624 -15.16822,11.63192 0.59012,0.95481 198.74554,0.9919 200.25176,0.0375 z M 336.44116,39.760051 c 6.78624,-1.45538 12.69762,-7.85712 14.02554,-15.188952 0.31047,-1.714192 0.0232,-4.48788 -0.72618,-7.011279 -5.84959,-19.6977047 -35.02454,-15.8264207 -35.02454,4.647479 0,9.389856 6.90795,16.739372 17.21398,18.314332 0.30835,0.0471 2.33839,-0.2956 4.5112,-0.76158 z m 54.51184,-0.95275 c 4.57414,-2.337275 6.5613,-5.170338 6.97235,-9.94041 0.64796,-7.519208 -4.47799,-13.062167 -12.07431,-13.056602 -5.47556,0.004 -8.9169,2.168922 -11.02566,6.93613 -2.9421,6.651088 -0.44378,13.380679 6.06482,16.336532 4.26966,1.93905 5.81116,1.89682 10.0628,-0.27565 z M 274.8088,20.585155 c 5.01081,-4.66827 1.96964,-12.3410177 -4.81502,-12.1481147 -5.88803,0.16741 -8.71978,8.1064527 -4.25983,11.9427467 2.67702,2.302672 6.72533,2.394288 9.07485,0.205368 z m -38.4,-7.199998 c 3.42023,-3.18642 3.27461,-8.5489147 -0.29566,-10.8882447 -7.1324,-4.673331 -14.79542,4.531497 -8.78016,10.5467507 2.47024,2.47024 6.62316,2.626502 9.07582,0.341494 z m 69.84116,-13.68833974 c 4.11528,-1.37784796 7.64635,-4.33871296 10.03488,-8.41442796 4.29163,-7.3231163 2.13523,-17.5989793 -4.75679,-22.6674223 -7.77357,-5.716753 -16.96918,-5.074119 -23.69954,1.65624 -8.84762,8.847619 -5.24333,24.9976593 6.53193,29.26819826 3.3986,1.232569 8.47747,1.29981 11.88952,0.157412 z M 254.06073,-3.9883557 c 8.51644,-6.3474863 5.82935,-19.9169463 -4.26856,-21.5556093 -6.64242,-1.077917 -12.37517,2.432317 -14.03414,8.593282 -1.55196,5.763534 1.56009,11.9365073 7.21131,14.3041623 2.85582,1.196483 8.62162,0.498936 11.09139,-1.341835 z m -36.82612,-1.285528 c 4.18428,-4.518614 1.07098,-11.7188163 -5.0671,-11.7188163 -7.36022,0 -9.44902,10.2898893 -2.66763,13.1412523 3.02896,1.273581 5.69164,0.783909 7.73473,-1.422436 z"
       id="path837"
       inkscape:connector-curvature="0" />
    <path
       style="fill:#eb9f4c;stroke-width:0.80000001"
       d="M 56.569343,304.58297 C 40.467172,302.63071 25.8996,292.34186 19.142732,278.14915 c -1.765316,-3.70802 -3.661286,-8.71054 -4.213266,-11.11671 -1.074051,-4.68196 -1.378357,-19.17761 -0.434649,-20.70456 0.426844,-0.69065 57.811622,-0.92059 229.746843,-0.92059 217.51232,0 229.20716,0.0713 229.75278,1.4 0.3162,0.77 0.5363,5.18 0.48912,9.8 -0.069,6.76093 -0.50056,9.67339 -2.2114,14.92591 -4.947,15.1879 -17.49136,27.09176 -33.70282,31.98198 -4.56729,1.37773 -13.81755,1.454 -190.8,1.57309 -102.3,0.0689 -188.339997,-0.15855 -191.199997,-0.5053 z m -13.03433,-73.64875 c -6.564844,-0.96038 -14.570277,-5.0271 -19.395356,-9.85274 -10.577722,-10.57894 -13.435864,-28.4484 -6.816542,-42.61787 2.458246,-5.26218 8.283772,-12.25632 10.208479,-12.25632 1.618031,0 18.056294,7.89503 26.884275,12.91208 16.892634,9.60028 29.271786,18.89213 41.152054,30.88891 l 7.398587,7.47116 11.00141,-4.77784 c 46.91567,-20.37507 119.07908,-35.08826 206.20142,-42.04177 41.18704,-3.28727 63.37515,-4.28773 110.42643,-4.97909 l 36.02643,-0.52936 3.02052,2.65205 c 4.25958,3.73997 7.33988,8.50694 9.35028,14.4702 1.46804,4.35452 1.68864,6.53266 1.45352,14.35142 -0.25696,8.5454 -0.47162,9.61266 -2.94277,14.63141 -5.27596,10.71514 -15.29433,18.02708 -27.02235,19.72237 -6.84276,0.98912 -400.174899,0.94601 -406.946387,-0.0446 z m 55.26707,-41.26286 C 69.803077,166.62403 43.582568,152.76497 21.937671,149.04407 l -3.031672,-0.52116 0.231672,-6.55781 0.231672,-6.55781 49.564331,-0.4 49.564326,-0.4 0.62575,-3.01242 c 0.86279,-4.15358 3.18201,-8.41522 6.57843,-12.08813 1.57694,-1.7053 2.86716,-3.41282 2.86716,-3.79448 0,-0.38319 -24.62913,-0.78596 -54.999997,-0.89945 l -55,-0.20551 0.232014,-2.4 c 0.484716,-5.01402 4.970997,-21.907129 7.754602,-29.199999 4.248903,-11.13186 9.995882,-22.4448 16.378991,-32.24211 5.934731,-9.10908 15.763506,-21.798476 19.859966,-25.640108 2.793938,-2.620128 3.058613,-2.608504 18.110267,0.795656 16.9273,3.828368 31.284257,9.699575 78.464157,32.087532 45.13554,21.41786 63.4231,28.74434 86.4,34.61413 19.11507,4.88324 34.63853,6.80097 62.15683,7.678709 l 17.35683,0.55363 6.31156,-5.923719 c 3.47136,-3.25805 9.23898,-7.90372 12.81694,-10.32372 3.57796,-2.42 6.51718,-4.65219 6.53161,-4.96042 0.0144,-0.30823 -9.24377,-0.55465 -20.57377,-0.54758 -29.5247,0.0184 -52.73234,-2.58151 -76.6,-8.58131 -20.5966,-5.17753 -31.31968,-9.27735 -65.6,-25.08126 -39.7883,-18.343208 -57.00563,-25.136048 -74.88817,-29.545996 -9.43249,-2.326114 -26.021707,-4.883436 -31.678595,-4.883436 -4.838152,0 -3.631464,-1.4289587 9.697418,-11.48367874 C 119.45865,-21.718035 159.73413,-38.058735 197.12106,-43.410451 c 30.0404,-4.300103 75.31423,-3.911909 103.76662,0.889731 16.23516,2.739856 46.76472,11.491084 49.44771,14.174071 0.44612,0.446121 -0.0701,1.920304 -1.31444,3.754015 -5.34824,7.881072 -4.58023,16.7516813 2.03097,23.4576653 4.05853,4.116726 6.87824,5.288679 12.71742,5.285722 8.6135,-0.0044 15.7774,-5.173819 17.68865,-12.76409 0.5164,-2.0507953 1.36763,-3.5793633 1.99329,-3.5793633 1.36296,0 16.57236,10.2361293 24.43606,16.4457843 8.98102,7.0919677 26.282,24.4869747 26.282,26.4248387 0,2.511912 -8.82302,15.292628 -14.5273,21.043718 -6.51562,6.5691 -12.19689,10.76754 -20.66624,15.27226 -6.7665,3.59901 -6.79563,3.62804 -7.31618,7.29103 -0.97713,6.8758 -5.71985,13.151 -14.87912,19.68693 -7.30006,5.2092 -6.92106,5.69767 3.2356,4.1702 26.03231,-3.91502 50.42306,-14.8728 69.17638,-31.07814 3.6003,-3.11114 6.72843,-5.65662 6.95138,-5.65662 0.66678,0 5.60157,10.26872 8.84238,18.4 5.08606,12.76101 9.9399,31.273889 8.90603,33.968139 -0.41854,1.09067 -6.11435,1.23186 -49.69783,1.23186 -27.11776,0 -49.2251,0.31042 -49.2251,0.6912 0,0.38016 1.43014,1.68228 3.1781,2.89362 4.3662,3.02578 9.9328,9.1202 11.96023,13.09429 l 1.68678,3.30636 40.98745,0.20727 40.98744,0.20725 0.23391,6.69642 0.23391,6.69642 -4.23391,-0.48469 c -2.32865,-0.26658 -17.91391,-0.87109 -34.63391,-1.34336 -31.08735,-0.87809 -80.95993,-0.11726 -108.8,1.6598 -88.87984,5.67329 -158.17376,19.25911 -208,40.78064 -5.28,2.2806 -10.39527,4.45789 -11.36726,4.83841 -1.47656,0.57806 -2.85838,-0.1753 -8.399997,-4.57957 z M 353.36934,134.26697 c 0,-0.40719 -3.37884,-3.09608 -7.50854,-5.97533 -4.12968,-2.87925 -9.49016,-7.0461 -11.91216,-9.25967 L 329.545,115.0073 h -76.71793 -76.71795 l -8.12584,5.8834 c -4.46921,3.23588 -10.30252,7.28588 -12.96289,9 -2.66039,1.71413 -4.8402,3.56659 -4.84405,4.11659 -0.006,0.79479 20.8426,1 101.593,1 61.74077,0 101.6,-0.29044 101.6,-0.74032 z M 340.31462,38.936971 c 8.99422,-4.354033 13.0122,-15.052104 8.9875,-23.929672 -3.33373,-7.3534257 -8.61084,-10.7408187 -16.73278,-10.7408187 -17.3021,0 -24.90074,20.7126667 -11.73342,31.9834017 5.42136,4.640489 13.22091,5.716429 19.4787,2.687089 z m 53.02887,-0.71126 c 5.55976,-3.958908 6.89493,-11.954732 2.95868,-17.718492 -5.29387,-7.751692 -17.75129,-6.977395 -21.70239,1.34892 -1.67118,3.521752 -1.57432,9.81376 0.19231,12.492456 1.46292,2.218183 4.49055,4.850796 6.57725,5.719126 2.58186,1.07436 9.33807,0.035 11.97415,-1.84201 z M 275.11672,20.708659 c 3.46154,-3.092885 3.56069,-7.04848 0.26295,-10.490581 -3.13073,-3.2677777 -6.84971,-3.2944797 -10.07187,-0.07232 -3.72602,3.726019 -3.03218,9.16493 1.48165,11.614498 3.26933,1.7742 5.47663,1.495456 8.32727,-1.0516 z m -38.7037,-6.89259 c 3.94662,-3.320863 3.80937,-9.2795427 -0.27539,-11.9559817 -6.46034,-4.232973 -14.21055,3.077721 -10.45188,9.8591547 2.34207,4.225611 7.09358,5.154375 10.72727,2.096827 z M 304.48945,0.54969626 c 14.27279,-3.06096596 19.33561,-20.88483026 8.77758,-30.90185126 -3.56593,-3.383207 -7.74095,-5.040545 -12.69769,-5.040545 -14.22414,0 -22.86375,15.277515 -15.6249,27.6296843 2.45296,4.185655 5.88689,6.759955 10.77593,8.07833996 4.64163,1.25166704 4.09387,1.23702704 8.76908,0.234372 z m -50.3197,-4.14239696 c 7.46129,-5.092999 7.31045,-15.2660743 -0.31063,-20.9505683 -3.02898,-2.259287 -9.99605,-2.223937 -13.08775,0.06641 -7.55548,5.597142 -7.69579,15.9166353 -0.28373,20.8682163 3.73826,2.497316 10.03612,2.504656 13.68211,0.01594 z m -36.73887,-1.338461 c 4.04264,-4.042635 2.59075,-10.2621213 -2.81184,-12.0451333 -5.8054,-1.915956 -11.33453,3.642496 -9.22899,9.2779293 2.02203,5.411935 8.01809,6.78993996 12.04083,2.767204 z"
       id="path835"
       inkscape:connector-curvature="0" />
    <path
       style="fill:#e16512;stroke-width:0.80000001"
       d="m 57.173072,303.77684 c -19.767816,-2.33209 -36.019404,-16.42301 -41.023708,-35.56955 -1.27551,-4.88012 -1.857558,-19.45651 -0.842499,-21.09891 0.41082,-0.66472 60.549406,-0.90109 229.260665,-0.90109 H 473.2713 l 0.55684,3.71324 c 1.40925,9.39757 -1.93823,23.9243 -7.44004,32.28676 -6.21229,9.44236 -16.15117,16.83151 -27.35558,20.33776 -5.24543,1.64148 -5.88911,1.6474 -190.86318,1.75772 -102.08,0.0609 -188.028319,-0.17578 -190.996268,-0.52593 z m -15.80103,-73.35619 c -4.413233,-0.83158 -12.220371,-5.12864 -16.260929,-8.95003 -7.415103,-7.0129 -10.931037,-15.53903 -10.912718,-26.46333 0.01738,-10.36708 2.80939,-18.10551 9.119817,-25.27682 l 3.356753,-3.81469 3.547188,1.40232 c 6.771186,2.67687 28.34582,14.23079 36.324797,19.45311 10.233241,6.69775 22.411433,16.71296 29.820103,24.52371 3.18874,3.3618 6.195437,6.11237 6.681547,6.11237 0.48612,0 5.25715,-1.93318 10.60229,-4.29597 40.47664,-17.89239 105.22767,-32.21373 179.31845,-39.66083 42.7579,-4.29773 74.99784,-6.11841 130.11682,-7.34806 41.2626,-0.92053 42.17124,-0.9078 44.8,0.62734 3.55712,2.07728 8.29736,8.42753 10.3591,13.87752 2.1415,5.66084 2.91406,17.35881 1.53708,23.274 -2.40693,10.33957 -9.92,19.50427 -19.82291,24.18067 l -5.39009,2.54533 -205.6,0.0949 c -113.08,0.0522 -206.498783,-0.0745 -207.597298,-0.2815 z M 374.43046,146.17179 c -1.83638,-0.3631 -4.53638,-1.27664 -6,-2.03008 -3.52631,-1.81527 -14.02403,-8.90358 -14.62414,-9.87458 -0.26032,-0.4212 -3.79513,-3.08425 -7.85514,-5.91789 -4.06002,-2.83364 -9.65142,-7.18013 -12.42537,-9.65886 l -5.04353,-4.5068 -76.15647,0.21186 -76.15647,0.21186 -6.4,4.85972 c -3.52,2.67284 -9.28,6.78362 -12.8,9.13507 -3.52,2.35144 -7.2106,5.13376 -8.20133,6.18293 -2.55088,2.70134 -11.25254,6.5856 -16.01757,7.14995 -8.7447,1.03568 -13.787,-1.8526 -13.77328,-7.88948 0.01,-4.36791 2.86098,-10.40491 7.06932,-14.96901 1.79057,-1.94194 3.06948,-3.83194 2.84201,-4.2 -0.22747,-0.36805 -25.05233,-0.66918 -55.166363,-0.66918 -30.11403,0 -54.749522,-0.27 -54.745537,-0.6 0.02781,-2.30218 4.431582,-19.358369 6.821733,-26.421159 6.188935,-18.28803 19.432468,-41.13514 32.564567,-56.178842 l 5.935923,-6.8 4.335265,0.155088 c 5.811129,0.20788 20.402641,4.01348 33.135262,8.641992 12.76224,4.639271 25.09675,10.141682 59.2,26.409022 35.03918,16.71378 49.16158,22.75536 67.20889,28.75201 25.08324,8.33451 46.25829,11.74909 80.07401,12.912289 l 16.08288,0.55324 6.80057,-6.311829 c 3.74031,-3.47149 9.71703,-8.29181 13.28159,-10.71181 3.56456,-2.42 6.66095,-4.8376 6.88085,-5.37242 0.30797,-0.74902 -4.50854,-0.97118 -20.96448,-0.96703 -23.16841,0.006 -37.39921,-1.11812 -56.86642,-4.49136 -25.84998,-4.47923 -45.19934,-10.73632 -72.89789,-23.5733 C 137.95817,21.185875 119.38645,14.510652 92.240123,11.266491 85.821199,10.499387 80.569343,9.6160583 80.569343,9.3035363 c 0,-0.90949 17.3331,-13.769312 25.145817,-18.656258 22.92788,-14.3416583 53.95994,-26.3908553 81.25418,-31.5495593 21.16317,-3.999912 52.73055,-5.626221 80.97127,-4.17153 19.23092,0.990592 34.04257,3.044435 49.95215,6.926571 9.88738,2.412643 28.39094,8.243628 31.26678,9.853032 0.7319,0.40959 0.46789,1.327594 -1.00532,3.495606 -8.72243,12.836211 0.10191,29.6591543 15.61512,29.7690603 8.47045,0.06001 15.42585,-4.67940404 18.15843,-12.373171 0.77942,-2.194493 1.63171,-3.9899873 1.89397,-3.9899873 0.89483,0 19.53529,12.9779313 23.9476,16.6728953 8.81615,7.3828317 17.62724,15.6342957 21.72304,20.3433437 l 4.19114,4.818656 -2.70498,5.062751 c -6.12261,11.459305 -20.35588,24.827855 -33.18374,31.167725 l -6.02546,2.97795 -0.0176,3.27834 c -0.0365,6.8047 -4.82355,13.51234 -15.0563,21.09686 -3.60782,2.67412 -5.58776,4.63984 -5.13224,5.09537 0.45553,0.45553 3.03023,0.40774 6.67388,-0.12387 28.11572,-4.10211 51.66315,-14.48808 71.32488,-31.45898 3.48485,-3.00793 6.44492,-5.34793 6.57794,-5.2 1.09158,1.21396 6.85775,13.86896 9.39621,20.62184 3.50104,9.31356 7.8332,25.297379 7.8332,28.901179 v 2.34594 h -49.2 c -53.66486,0 -52.50823,-0.1102 -46.0219,4.38482 7.28709,5.04994 14.42193,15.08325 14.42193,20.28069 0,6.37847 -7.5103,9.40057 -18.13888,7.29898 z M 339.39472,40.248251 c 4.7666,-1.99162 8.25567,-5.238345 10.45072,-9.72488 3.61384,-7.386432 1.87136,-16.382274 -4.34208,-22.4166957 -2.80009,-2.719409 -8.83662,-5.099376 -12.93402,-5.099376 -4.14365,0 -10.39545,2.448779 -13.06356,5.116893 -9.72162,9.7216267 -7.4883,25.2770747 4.48576,31.2439987 4.73216,2.35814 11.00753,2.71668 15.40318,0.88006 z m 52.31905,-0.0122 c 5.63708,-2.915049 9.00844,-10.093648 7.34611,-15.642 -2.07953,-6.940881 -8.04061,-10.961134 -15.0768,-10.168054 -6.77238,0.76333 -11.41374,6.106398 -11.41374,13.139334 0,6.177696 2.93284,10.92249 8.00041,12.94321 2.98613,1.19073 8.57891,1.05397 11.14402,-0.27251 z M 274.27209,22.554139 c 3.34815,-1.731392 5.06983,-5.993924 3.87874,-9.602958 -3.04776,-9.2347807 -15.98149,-7.0428237 -15.98149,2.708503 0,2.630943 2.57299,6.338295 5.1105,7.363559 2.55161,1.030968 4.32102,0.912272 6.99225,-0.46908 z m -38.4,-7.199998 c 3.34815,-1.731392 5.06983,-5.9939257 3.87874,-9.6029587 -2.27733,-6.900369 -11.03679,-8.06774 -14.64927,-1.952304 -1.81638,3.074884 -1.67257,6.5599347 0.37828,9.1671627 2.88024,3.661644 6.37604,4.464964 10.39225,2.3881 z m 73.61129,-15.62439774 c 3.73318,-1.87973396 8.46622,-7.40396896 9.48468,-11.07018626 2.69697,-9.708403 -2.07369,-20.04422 -10.97302,-23.773511 -1.41588,-0.593299 -4.8518,-1.078746 -7.6354,-1.078746 -6.6794,0 -12.58466,3.338657 -16.16157,9.137264 -2.11528,3.429126 -2.42567,4.66809 -2.40497,9.6 0.0434,10.3591583 5.32026,16.67639926 15.97624,19.1263343 2.64797,0.608798 8.61293,-0.379654 11.71404,-1.94113104 z m -55.3059,-2.52244396 c 6.19751,-4.217987 7.98357,-10.9097433 4.64416,-17.3999993 -2.06513,-4.013648 -7.15334,-7.213286 -11.42181,-7.18243 -3.62737,0.02622 -8.74991,2.660524 -10.81614,5.562278 -1.94661,2.733753 -2.94206,8.208674 -2.10147,11.55787 0.61882,2.4655903 4.97746,7.5774693 7.24338,8.4951573 3.39461,1.37479996 9.68036,0.85340196 12.45188,-1.032876 z m -37.59974,-0.332216 c 4.35978,-2.575386 5.27511,-8.2196583 1.96998,-12.1475893 -2.55825,-3.040305 -5.74334,-3.774133 -9.5243,-2.194348 -5.54282,2.315937 -6.56922,9.7521543 -1.88957,13.6898193 2.75807,2.320755 6.21501,2.559463 9.44389,0.652118 z"
       id="path833"
       inkscape:connector-curvature="0" />
    <path
       style="fill:#c6471b;stroke-width:0.80000001"
       d="m 41.372042,230.42065 c -4.413233,-0.83158 -12.220371,-5.12864 -16.260929,-8.95003 -7.415103,-7.0129 -10.931037,-15.53903 -10.912718,-26.46333 0.01738,-10.36708 2.80939,-18.10551 9.119817,-25.27682 l 3.356753,-3.81469 3.547188,1.40232 c 6.771186,2.67687 28.34582,14.23079 36.324797,19.45311 10.233241,6.69775 22.411433,16.71296 29.820103,24.52371 3.18874,3.3618 6.195437,6.11237 6.681547,6.11237 0.48612,0 5.25715,-1.93318 10.60229,-4.29597 40.47664,-17.89239 105.22767,-32.21373 179.31845,-39.66083 42.7579,-4.29773 74.99784,-6.11841 130.11682,-7.34806 41.2626,-0.92053 42.17124,-0.9078 44.8,0.62734 3.55712,2.07728 8.29736,8.42753 10.3591,13.87752 2.1415,5.66084 2.91406,17.35881 1.53708,23.274 -2.40693,10.33957 -9.92,19.50427 -19.82291,24.18067 l -5.39009,2.54533 -205.6,0.0949 c -113.08,0.0522 -206.498783,-0.0745 -207.597298,-0.2815 z M 373.63552,145.78797 c -4.70701,-1.26848 -14.0714,-6.61424 -18.9624,-10.82488 -1.81708,-1.56432 -6.18991,-4.86001 -9.7174,-7.32376 -3.5275,-2.46375 -8.67708,-6.49919 -11.44353,-8.96765 l -5.02991,-4.4881 -76.15647,0.21186 -76.15647,0.21186 -6.4,4.85972 c -3.52,2.67284 -9.28,6.78362 -12.8,9.13507 -3.52,2.35144 -7.13366,5.05073 -8.03034,5.99844 -2.29046,2.42074 -9.59382,5.8446 -14.79334,6.93522 -5.45589,1.14438 -9.60331,0.41869 -12.75277,-2.2314 -1.98677,-1.67176 -2.42214,-2.63923 -2.41573,-5.36817 0.01,-4.26192 2.913,-10.35186 7.09916,-14.89268 1.80699,-1.96008 3.00168,-3.84754 2.65487,-4.19436 -0.34681,-0.3468 -25.09511,-0.7231 -54.996207,-0.8362 l -54.36564,-0.20564 0.276271,-2.4 c 0.15195,-1.32 1.462347,-7.08 2.911994,-12.799999 6.091436,-24.03552 18.440665,-47.14343 36.307256,-67.938242 3.699809,-4.306184 6.483529,-6.86176 7.474333,-6.86176 3.314058,0 18.122106,3.414136 26.362976,6.078232 16.032657,5.183007 31.429487,11.93856 75.467167,33.11213 59.63623,28.67347 87.93931,36.41325 139.29307,38.091239 l 16.89308,0.55197 6.40489,-5.989769 c 3.52268,-3.29438 9.4208,-8.10201 13.10692,-10.68363 3.68612,-2.58161 7.1486,-5.30472 7.6944,-6.05133 1.48551,-2.0321 10.48342,-8.26351 15.92513,-11.02878 2.63595,-1.3395 7.32417,-2.86956 10.41826,-3.40014 5.35428,-0.91816 5.81466,-0.871 9.54494,0.9777 3.8772,1.9215 3.9219,1.9874 4.1608,6.13321 0.44427,7.7099 -3.92739,14.28341 -14.91536,22.42769 -3.77639,2.79906 -5.59804,4.62956 -5.10141,5.1262 1.71206,1.712059 23.00398,-2.5998 36.68932,-7.43001 14.69482,-5.18651 31.38101,-14.98588 42.04815,-24.69381 l 5.36219,-4.88001 1.28718,1.96447 c 1.99008,3.03725 8.23043,17.56626 10.46981,24.37619 2.4536,7.46137 5.91617,21.456849 5.9176,23.918449 l 0.001,1.8 h -49.2 c -53.66486,0 -52.50822,-0.1102 -46.0219,4.38482 7.28706,5.04994 14.4219,15.08325 14.4219,20.28069 0,6.67815 -8.41238,9.75058 -18.93382,6.91516 z"
       id="path831"
       inkscape:connector-curvature="0" />
    <path
       style="fill:#613a16;stroke-width:0.80000001"
       d="m 41.629801,230.17168 c -9.265976,-1.83212 -19.526976,-9.78152 -23.70453,-18.36439 -4.233686,-8.69819 -4.803767,-21.40118 -1.372056,-30.57325 1.83167,-4.89558 7.27626,-12.97449 9.571789,-14.20302 1.152374,-0.61673 3.531388,0.17731 10.791841,3.60197 24.662484,11.63297 46.876242,26.95126 60.252948,41.54957 2.63313,2.8736 5.324327,5.22473 5.980447,5.22473 0.65612,0 6.01383,-2.10548 11.90602,-4.67884 23.55234,-10.28627 54.2614,-19.13436 93.11308,-26.82835 62.02173,-12.28245 149.17019,-19.64961 232.83007,-19.68244 l 26.43007,-0.0104 3.73033,3.8 c 9.62656,9.80639 12.17439,28.60943 5.65226,41.714 -4.53716,9.11629 -14.40946,16.62116 -24.3423,18.50488 -5.08737,0.9648 -405.953767,0.91162 -410.839969,-0.0545 z M 375.955,146.15891 c -1.87789,-0.37019 -5.64271,-1.86075 -8.36625,-3.31235 -6.97821,-3.71924 -26.91651,-17.97181 -35.15649,-25.13104 -7.32683,-6.36585 -9.84206,-10.11909 -9.00807,-13.44194 0.67454,-2.68758 11.96405,-13.382189 20.34515,-19.273049 3.74,-2.62875 9.2997,-6.65869 12.3549,-8.9554 10.46083,-7.86385 21.62561,-12.18935 28.25326,-10.946 1.48841,0.27923 3.76046,1.3948 5.04902,2.47904 1.90745,1.60502 2.33956,2.58997 2.32525,5.30024 -0.0444,8.41255 -5.01785,14.13057 -25.02485,28.771329 -2.28667,1.67335 -4.46247,3.34624 -4.83512,3.71754 -0.37264,0.3713 1.60736,2.21898 4.4,4.10597 10.91441,7.37483 20.51218,16.22757 23.45478,21.63408 4.04866,7.43873 2.39146,13.23293 -4.31783,15.09672 -3.26042,0.90572 -4.68475,0.89893 -9.47375,-0.0451 z m -252.98566,-6.01622 c -3.1187,-2.13551 -4.00062,-3.61303 -3.99218,-6.6883 0.0207,-7.56177 8.23188,-17.61321 21.61984,-26.46539 4.82479,-3.19016 8.77234,-6.06069 8.77234,-6.37894 0,-0.31825 -4.48787,-3.551469 -9.97306,-7.184919 -10.7854,-7.14437 -17.19752,-13.21784 -19.64293,-18.60544 -4.53435,-9.98988 1.6339,-16.89744 13.38157,-14.98546 6.46242,1.05179 11.59376,3.71704 26.26855,13.64404 14.78024,9.99834 23.91806,17.99598 26.82726,23.47987 l 1.93587,3.649149 -1.90403,3.5891 c -2.28148,4.30065 -6.86073,8.56595 -16.96512,15.802 -25.61441,18.34324 -30.18303,20.85016 -38.72811,21.25105 -4.2933,0.20141 -6.06668,-0.0568 -7.6,-1.10676 z"
       id="path829"
       inkscape:connector-curvature="0" />
    <path
       style="fill:#040202;stroke-width:0.80000001"
       d="m 371.89631,143.68245 c -6.49545,-2.4952 -29.74935,-18.53735 -39.07323,-26.9554 -6.496,-5.86491 -8.73281,-9.30207 -7.98711,-12.2732 0.69892,-2.7847 12.46535,-13.856669 20.99899,-19.759609 3.92391,-2.71427 9.29438,-6.52814 11.93438,-8.47527 8.5389,-6.29786 15.53919,-9.39673 22.19143,-9.82364 5.47623,-0.35145 6.03158,-0.23367 8.43537,1.78899 3.1914,2.68538 3.35078,5.58876 0.61607,11.22298 -2.61617,5.38999 -5.43977,8.52315 -11.73357,13.01992 -10.1548,7.25536 -17.5093,12.996559 -17.5093,13.668419 0,0.3723 2.61,2.40902 5.8,4.52603 16.53514,10.9734 25.44276,20.71808 25.37456,27.75903 -0.0474,4.88961 -3.17391,7.04716 -10.12197,6.98491 -2.67422,-0.0239 -6.46957,-0.73967 -8.92562,-1.68316 z M 123.96989,139.4647 c -3.67987,-1.67003 -4.75793,-4.41414 -3.53318,-8.99336 1.99721,-7.46736 7.48105,-13.34291 20.96669,-22.46436 5.04126,-3.40983 9.16594,-6.72812 9.16594,-7.37398 0,-0.645859 -4.68,-4.353129 -10.4,-8.238349 -12.11208,-8.22696 -14.91528,-10.73817 -18.06957,-16.18735 -3.83274,-6.62126 -3.00039,-12.3332 2.10827,-14.46773 7.33335,-3.06407 14.27408,-0.53115 33.5613,12.24774 15.76614,10.44596 26.97765,20.26179 28.05765,24.56485 1.58411,6.311619 -2.71799,10.555219 -30.45765,30.043439 -14.82114,10.41245 -24.79682,13.86558 -31.39945,10.8691 z"
       id="path827"
       inkscape:connector-curvature="0" />
  </g>
</svg>
